<svg xmlns="http://www.w3.org/2000/svg" viewBox="0 0 43.5 43.26"><defs><style>.cls-1{fill:#000c85;}</style></defs><g id="Layer_2" data-name="Layer 2"><g id="Layer_1-2" data-name="Layer 1"><path class="cls-1" d="M43.5,25.15c-.4,2.33-.76,4.67-1.25,7a3.6,3.6,0,0,1-1.07,1.54c-1.85,1.9-3.66,3.85-5.66,5.59-4.6,4-9.86,4.68-15.77,3.41a34.6,34.6,0,0,1-8.54-3.55,20.13,20.13,0,0,1-7.33-6.7C1.55,29.08,1.48,25.14.32,21.48c-.71-2.25,0-4.32,0-6.41C.46,12,2.59,9.47,4.69,7.4a70.2,70.2,0,0,1,8.15-6.34c.45-.32,1.25-.13,1.88-.23,1.45-.24,2.89-.5,4.34-.75.14,0,.3-.11.41-.07,2.51.9,5.43.18,7.68,2.33C28.7,3.81,31,4.5,32.57,6c3,2.75,6.23,5.47,8.39,8.82,1.88,2.91,3.07,6.55,2,10.36Zm-28,9.34A7.52,7.52,0,0,0,15.74,37a3.68,3.68,0,0,0,1.71,1.39c.13.06.93-.63,1-1,.37-2.77.66-5.57.91-8.36a3,3,0,0,0-.25-1.65c-1.12-1.87.2-2.47,1.53-2.45,2.6.05,5.19.47,7.78.7a10.21,10.21,0,0,0,2.14,0c1.95-.23,3.91-.45,5.83-.83.69-.14,1.87-.95,1.81-1.1-.32-.91-.78-2.26-1.48-2.46a105.27,105.27,0,0,0-11.66-2.67c-3.55-.56-7.18-.64-10.77-.93-.36,0-.72,0-1.08-.07-2.37-.25-4.75-.66-7.13-.7A3.08,3.08,0,0,0,3.71,18.2a4,4,0,0,0,3,5.71,50.33,50.33,0,0,0,6.91.84c2,.08,3,.81,2.83,2.81C16.19,29.86,15.84,32.14,15.53,34.49Zm3.28-30.7c-1.28.12-2.84-.17-3.77.45-2.93,2-5.67,4.25-8.39,6.51-.87.73-.86,1.78.49,2.06,3.15.64,6.31,1.3,9.5,1.67,2.73.31,5.53.1,8.27.38,2.92.3,5.79,1.05,8.71,1.32,2.12.2,2.88-1,1.65-2.72a22,22,0,0,0-4.66-4.68C27.13,6.17,23.6,3.48,18.81,3.79ZM28,28.59l0,.12H25.65a3.16,3.16,0,0,0-3,4.33,9.56,9.56,0,0,1,.61,2.83c.1,2.81,2.14,4.22,4.65,3a33.7,33.7,0,0,0,5.92-3.43,15.83,15.83,0,0,0,3.25-4.11c.2-.29-.37-1.58-.71-1.64C33.63,29.21,30.82,28.93,28,28.59Zm-20-1a7.69,7.69,0,0,0-1.66,1.55,2,2,0,0,0,.18,1.54,7.92,7.92,0,0,0,1.62,2.41,6.67,6.67,0,0,0,2.29.79c.34-1.26,1.27-2.74.88-3.7S9.27,28.48,8,27.57Z"/></g></g></svg>