<svg xmlns="http://www.w3.org/2000/svg" viewBox="0 0 43.2 44.3"><defs><style>.cls-1{fill:#000c85;}</style></defs><g id="Layer_2" data-name="Layer 2"><g id="Layer_1-2" data-name="Layer 1"><path class="cls-1" d="M0,22c.45-3,.68-5.69,1.31-8.27a9,9,0,0,1,2.07-3.37A99.6,99.6,0,0,1,11,2,8.62,8.62,0,0,1,15.7.16c3.46-.35,7-.27,10.12,1.62C28.29,3.27,31,4.46,33.13,6.35a30.91,30.91,0,0,1,7.72,10A21.12,21.12,0,0,1,42,20.08c1.09,4.4,2.09,9,0,13.2-1.2,2.45-3.38,4.49-5.38,6.46a17.43,17.43,0,0,1-4.58,3,12.17,12.17,0,0,1-4.55,1.41c-4.23.2-8.56.67-12.5-1.59-4.86-2.79-9.38-5.9-11.79-11.25-.48-1.07-1.54-1.93-1.87-3C.7,26.13.39,23.91,0,22Zm3-.37c.52,1.61.8,2.83,1.3,4,.79,1.77,1.68,3.5,2.59,5.21,3.1,5.85,7.74,9.37,14.62,9.53.68,0,1.34.52,2,.51,1,0,2.22,0,2.84-.55a2.79,2.79,0,0,0,.35-2.63A101,101,0,0,0,20.4,27.1c-3.31-4.63-7-9-10.53-13.49-1.07-1.36-2.66-1.51-3.39-.06C5.13,16.2,4.09,19,3,21.63Zm35.25,4.55.46-.1c-.63-2.85-.93-5.82-2-8.51A25.61,25.61,0,0,0,28.1,6.43c-2.71-2-6-2.81-9.24-3.23-1.45-.19-2.63.61-2.35,2.24A9.41,9.41,0,0,0,17.92,8.9c1,1.58,2.37,3,3.48,4.5,1.8,2.49,3.47,5.08,5.28,7.57,2.3,3.17,4.62,6.35,7.08,9.4a3.36,3.36,0,0,0,2.63,1.2c.73-.15,1.5-1.33,1.77-2.21A11.21,11.21,0,0,0,38.23,26.18Zm-4.16,9.59a5.88,5.88,0,0,0-.38-1.46c-1.34-2-2.65-4-4.1-5.85-1-1.35-2.35-2.48-3.38-3.82-1.95-2.55-3.77-5.21-5.69-7.79-.59-.79-1.38-1.44-2-2.22-1.59-2-3.08-4.17-4.75-6.13-.44-.52-1.43-.57-2.17-.84,0,.86-.36,1.9,0,2.54,1.42,2.48,3,4.9,4.64,7.23,2.47,3.48,5.32,6.73,7.55,10.34,1.93,3.12,3.07,6.75,6.29,8.94.66.45,1.65,1,2.23.83C33.1,37.27,33.6,36.29,34.07,35.77Z"/></g></g></svg>