<svg xmlns="http://www.w3.org/2000/svg" viewBox="0 0 38.3 43.46"><defs><style>.cls-1{fill:#000c85;}</style></defs><g id="Layer_2" data-name="Layer 2"><g id="Layer_1-2" data-name="Layer 1"><path class="cls-1" d="M38.3,23.55c-.72,2.75-1.78,5.46-2,8.25-.22,2.31-1.57,3.85-2.56,5.65a6.11,6.11,0,0,1-1.83,1.82c-1.12.82-2.38,1.45-3.51,2.26-3.11,2.23-6.74,2.21-10.08,1.53-2.47-.5-4.7-2.34-6.94-3.72C7.23,36.8,4.55,33,2.49,28.79A22.68,22.68,0,0,1,0,19.55,25.1,25.1,0,0,1,2.11,9C2.6,7.77,3.94,6.83,5,5.81,6.16,4.58,7.47,3.45,8.65,2.2a6.65,6.65,0,0,1,6-2.1c2.82.52,5.83,1,8.07,3.22.83.83,2,1.31,2.91,2.08,2.44,2.07,4.83,4.18,7.2,6.32,3.46,3.13,5.55,6.85,4.88,11.7Zm-9.53-3.87A8.89,8.89,0,0,0,27.66,18c-2.95-2.78-5.9-5.56-8.92-8.26C16.34,7.6,16.17,7.54,14,10c-2,2.27-3.69,4.77-5.44,7.23-1,1.44-.57,2.83.42,4.17Q13.11,27,17.12,32.67c1.27,1.78,3.13,1.73,4.14-.2,2-3.91,3.72-8.06,7-11.27C28.52,20.89,28.55,20.31,28.77,19.68ZM15.71,38.61c1.91-1.74,2-2,1.14-3.09-1.72-2.05-3.5-4-5.22-6.09A42.78,42.78,0,0,1,7.27,24c-.74-1.25-1.59-1.56-2.5-1-.45.3-.48,1.64-.29,2.41A15.4,15.4,0,0,0,6,29.27c1.06,1.88,2,3.95,3.58,5.38C11.36,36.31,13.72,37.36,15.71,38.61Zm8.46-2.34c1.74,2,3.24,1.81,4.46-.38a27,27,0,0,1,2.7-4c1.68-2.05,2.21-5.89.87-8.23C28.26,27.13,26,31.55,24.17,36.27ZM30.9,14.94c0-.13.05-.3,0-.4a5.1,5.1,0,0,0-.64-.83C27.89,11.35,25.5,9,23.18,6.64c-1.15-1.19-1.86-.89-2.49.41C24.68,12.51,28.59,15.53,30.9,14.94ZM6.3,13.23C7.52,12,8.73,10.8,9.81,9.52a2.89,2.89,0,0,0,.48-1.66,1.72,1.72,0,0,0-1.23-.4C6.91,8,5.47,11.17,6.3,13.23Z"/></g></g></svg>