<svg xmlns="http://www.w3.org/2000/svg" viewBox="0 0 1459.71 45.42"><defs><style>.cls-1{opacity:0.14;}.cls-2{fill:#000c85;}</style></defs><g id="Layer_2" data-name="Layer 2"><g id="Layer_1-2" data-name="Layer 1"><g class="cls-1"><path class="cls-2" d="M182,23.14c-.65,3.62-.85,7.5-2.14,11-.83,2.25-3.4,3.81-4.93,5.87-1.64,2.21-4.09,2.51-6.39,3.18a24,24,0,0,1-4.71,1c-2,.18-4.09-.06-6.12.08-5.68.38-8.24-4.05-11.55-7.29a14.45,14.45,0,0,1-3-3.77,27.17,27.17,0,0,1-1.44-5.2c-.1-.41.05-1-.19-1.23-2.8-2.31-1-5.77-2.24-8.57-1-2.27,2.78-8.37,5.08-9.61a7.46,7.46,0,0,0,1.46-1.19A15.32,15.32,0,0,0,148.19,5C150.13,2,153.56,1.83,156.35.5a4.79,4.79,0,0,1,3.1-.38c3.66,1.1,7.87.88,10.7,4.13a4.8,4.8,0,0,0,1.39.94c1.47.8,3.11,1.26,3.75,3.18.23.71,1.48,1,2.07,1.68,1,1.1,2.17,2.23,2.56,3.56C180.82,16.67,181.29,19.85,182,23.14Zm-9,10.45.42-.65c-2-4-3.86-8-8.15-10.32-1.32-.7-2.17-3-1.49-3.87,1.47-1.8,3-3.59,4.49-5.34.89-1,1.39-4.44.75-5.63a1.72,1.72,0,0,0-3.1-.31c-.35.43-.48,1-.86,1.43a20.14,20.14,0,0,0-5.74,9.27c-.16.65-1.46,1.37-2.27,1.42-2,.14-2.72-1.33-3.36-3.05a39.25,39.25,0,0,0-3.27-6.67c-.3-.51-1.65-.58-2.46-.48-.26,0-.43,1.3-.5,2-.27,2.73,2.35,3.93,3.31,6a5.61,5.61,0,0,0,2,2.29A4.64,4.64,0,0,1,154,26.81a27.39,27.39,0,0,0-3.7,5.8,4.6,4.6,0,0,0,.5,4c1,1.12,3,0,3.95-1.88.42-.81.93-1.58,1.31-2.4,1-2.14,1.89-4.3,2.89-6.43.44-.94,1.07-2.57,1.55-2.55a5.17,5.17,0,0,1,3.2,1.51c2.07,2.19,3.79,4.71,5.87,6.89C170.38,32.66,171.81,33,173,33.59Zm4-11H177a30.72,30.72,0,0,0-.36-5.85,5.1,5.1,0,0,0-2.33-3.17c-1.53-.73-2.54.51-3.1,2A4.22,4.22,0,0,1,170,17a3.1,3.1,0,0,0-.61,4.38A44.61,44.61,0,0,0,174,26.84a2.5,2.5,0,0,0,2.12.43c.4-.11.7-1.08.78-1.7A22.62,22.62,0,0,0,177,22.6ZM161.69,40.27l0,.17c2-.37,4-.64,6-1.15,1.64-.42,2-2.39.89-3.8-.78-1-1.52-2-2.23-3-1.7-2.48-3.68-2.64-5.48-.28a32.35,32.35,0,0,0-2.9,4.6c-.93,1.78.15,3.38,2.22,3.5C160.69,40.3,161.19,40.27,161.69,40.27Zm-19-18.22c.43,2.15.73,4.31,1.33,6.38.32,1.09,1.19,2.07,2.62,1.23,2.66-1.58,4.23-6.82,2.7-9.49a25.35,25.35,0,0,0-3.27-4.38c-.91-1-1.87-1.09-2.19.64S143.11,20.11,142.7,22.05ZM156.3,3.44c-3.43,2.72-3.43,2.72-1.47,7.1a5.22,5.22,0,0,0,.26.79c.33.53.66,1.39,1.08,1.44a2.48,2.48,0,0,0,2-.67,18.9,18.9,0,0,0,2.3-4.66A2.87,2.87,0,0,0,159.7,5,13.5,13.5,0,0,0,156.3,3.44Z"/><path class="cls-2" d="M225.06,25.3l-2.37,7.84c-.24.8-.48,1.6-.74,2.4-.89,2.76-3.55,3.66-5.58,5.23-1.25,1-2.47,1.94-3.71,2.91-.22.17-.45.44-.68.46-3.67.3-7.52,2.19-11,0-4.45-2.9-9.73-5.07-11.25-11.09-.57-2.28-1.9-4.36-2.73-6.58a18.49,18.49,0,0,1-.59-3.27c-.25-1.43-.5-2.87-.76-4.3,0-.14-.11-.31-.06-.42,1.22-2.75.77-5.91,3.13-8.52,2.64-2.91,6.13-4.68,8.71-7.54a1.33,1.33,0,0,1,.69-.48c3.85-.27,7.84-1.24,11.43.84A38,38,0,0,1,221,12.59C223.73,16.11,224.62,19.73,225.06,25.3ZM196.38,20l.07-.28h1.08c3.14,0,3.66-.43,3.53-3.62-.1-2.22-.61-4.43-.81-6.65s-.89-2.53-2.89-1.66c-3.6,1.58-5.18,4.88-6.79,8.06a3,3,0,0,0,.76,2.84A24.47,24.47,0,0,0,196.38,20Zm6.44,13.7c0-.92,0-1.85,0-2.77,0-2.41-.61-3-3.1-3-1.72,0-3.44-.07-5.15,0-.78,0-2.14.34-2.19.67a5,5,0,0,0,.45,3.16,33.8,33.8,0,0,0,4.61,6,5.48,5.48,0,0,0,3.91,1.37c1.47-.13,1.56-1.77,1.48-3.11C202.78,35.29,202.82,34.5,202.82,33.72Zm9.12-20.08c0,1,0,2,0,3a2.1,2.1,0,0,0,2.31,2.23c1.74-.07,3.89.8,4.8-1.6a2.18,2.18,0,0,0-.18-1.82c-1.5-1.95-3.1-3.81-4.75-5.64a1.69,1.69,0,0,0-1.47-.48c-.36.12-.63.85-.69,1.35A29.56,29.56,0,0,0,211.94,13.64Zm2.72,23.53c1.17-1.36,2.18-2.65,3.29-3.83,1.94-2,1.74-3.52-.94-4.3-2.36-.68-4.65-.5-5,1.59C211.6,33,212.19,35.07,214.66,37.17ZM208,12.39h0c0-1.64.06-3.28,0-4.91a5.77,5.77,0,0,0-.63-1.65c-.62.27-1.47.37-1.79.83a6.12,6.12,0,0,0-1,6.17,2.44,2.44,0,0,1,0,1.51c-.39,1.24.58,3.84,1.75,4.32s1.65,0,1.66-1.16C208,15.8,208,14.09,208,12.39ZM196.88,26l.06-.32a24.2,24.2,0,0,0,3.41,0c.56-.07,1.44-.63,1.47-1a2.27,2.27,0,0,0-.86-1.81c-2.9-1.66-6.08-.79-9.15-.68-.47,0-1.17.94-1.25,1.51-.06.39.7,1.17,1.23,1.31C193.45,25.46,195.18,25.7,196.88,26Zm18-4.08c-.21,0-.51-.09-.63,0-.79.66-1.87,1.23-2.21,2.09-.5,1.23.82,1.26,1.63,1.8,2.11,1.37,3.79-.53,5.68-.32.17,0,.63-.75.62-1.15s-.27-1.29-.6-1.39C217.91,22.55,216.38,22.3,214.88,22Zm-6.06,11.91h0a21.74,21.74,0,0,0-.07-4c-.13-.67-1-1.26-1.61-1.74-.13-.1-1.07.4-1.07.63,0,3-.91,6.1.76,8.94a1.78,1.78,0,0,0,1.28.73c.22,0,.65-.7.69-1.11C208.89,36.15,208.82,35,208.82,33.87Zm-.34-10L207,22.05c-.36.64-1,1.26-1,1.91s.65,1.12,1,1.68Z"/><path class="cls-2" d="M43.5,26.09c-.4,2.33-.76,4.67-1.25,7a3.63,3.63,0,0,1-1.07,1.55c-1.85,1.89-3.66,3.84-5.66,5.58-4.6,4-9.86,4.68-15.77,3.41a34.6,34.6,0,0,1-8.54-3.55,20,20,0,0,1-7.33-6.69c-2.33-3.36-2.4-7.3-3.56-11C-.39,20.17.3,18.1.37,16,.46,13,2.59,10.41,4.69,8.34A70.2,70.2,0,0,1,12.84,2c.45-.32,1.25-.13,1.88-.23,1.45-.23,2.89-.5,4.34-.75.14,0,.3-.11.41-.07,2.51.9,5.43.19,7.68,2.33C28.7,4.75,31,5.44,32.57,6.89c3,2.75,6.23,5.47,8.39,8.82,1.88,2.91,3.07,6.55,2,10.36Zm-28,9.34a7.5,7.5,0,0,0,.21,2.47,3.68,3.68,0,0,0,1.71,1.39c.13.07.93-.63,1-1,.37-2.77.66-5.56.91-8.36a3,3,0,0,0-.25-1.65c-1.12-1.87.2-2.47,1.53-2.45,2.6.05,5.19.47,7.78.71a10.93,10.93,0,0,0,2.14,0c1.95-.23,3.91-.45,5.83-.83.69-.14,1.87-1,1.81-1.1-.32-.9-.78-2.26-1.48-2.45a100.93,100.93,0,0,0-11.66-2.67c-3.55-.57-7.18-.65-10.77-.94-.36,0-.72,0-1.08-.06-2.37-.26-4.75-.67-7.13-.71a3.11,3.11,0,0,0-2.36,1.38,4,4,0,0,0,3,5.72,50.31,50.31,0,0,0,6.91.83c2,.08,3,.81,2.83,2.81C16.19,30.8,15.84,33.08,15.53,35.43Zm3.28-30.7c-1.28.12-2.84-.17-3.77.45-2.93,2-5.67,4.25-8.39,6.51-.87.73-.86,1.78.49,2.06,3.15.64,6.31,1.3,9.5,1.67,2.73.32,5.53.1,8.27.38,2.92.3,5.79,1.05,8.71,1.32,2.12.2,2.88-1,1.65-2.72a22,22,0,0,0-4.66-4.68C27.13,7.11,23.6,4.42,18.81,4.73ZM28,29.53l0,.13c-.79,0-1.57,0-2.36,0a3.16,3.16,0,0,0-3,4.33,9.55,9.55,0,0,1,.61,2.84c.1,2.8,2.14,4.21,4.65,3a33.7,33.7,0,0,0,5.92-3.43,16,16,0,0,0,3.25-4.1c.2-.3-.37-1.59-.71-1.65C33.63,30.16,30.82,29.87,28,29.53Zm-20-1a7.69,7.69,0,0,0-1.66,1.55,2,2,0,0,0,.18,1.54A7.92,7.92,0,0,0,8.16,34a6.67,6.67,0,0,0,2.29.79c.34-1.26,1.27-2.74.88-3.7S9.27,29.42,8,28.51Z"/><path class="cls-2" d="M336.52,45.33c-3.26-.43-6.14-.69-9-1.25a7.38,7.38,0,0,1-2.86-1.73c-2.35-1.87-4.9-3.57-6.34-6.32s-3.14-5.24-3.88-8.07c-.92-3.52-2.82-7.25-.11-10.91a2.6,2.6,0,0,0,.39-1.61c-.19-3.95,1.81-6.65,4.9-8.79a8.48,8.48,0,0,0,1-.86c4-3.89,7-4,12.19-1.81,4.22,1.82,8.47,3.6,12,6.48s7.1,6.11,7.57,11.23a15.45,15.45,0,0,0,.88,3.86c1.67,4.55-.9,8-2.85,11.66-.43.8-1,1.54-1.37,2.36-1.31,2.81-3.74,4-6.59,4.64C340.37,44.64,338.29,45,336.52,45.33Zm-2.79-26a14,14,0,0,0-1.07,1.35c-1.55,2.52-2,2.73-4.68,1.34-2.41-1.27-4.52-3.23-7.61-2.67-1.14.21-2.53-.28-2.52,1.69,0,1.76.55,2.9,2.51,3a3.91,3.91,0,0,1,1.65.3,18.9,18.9,0,0,0,8.92,2.26c1.7,0,2.45.87,2.44,2.53,0,2.64-.07,5.27,0,7.91a5.85,5.85,0,0,0,.75,2.77c.39.61,1.34.86,2,1.28.33-.62.93-1.22.94-1.84.09-3.57,0-7.13.06-10.69,0-2.61,1.84-3.57,4.35-2.78a18.79,18.79,0,0,0,5.8.69c.63,0,1.44-1,1.78-1.77a1.89,1.89,0,0,0-.62-1.74c-2.47-.7-5.31-2.18-7.45-1.53C337.93,22.38,336.2,21.09,333.73,19.34ZM318,29.23c.29.68.48,1.28.77,1.83a19.14,19.14,0,0,0,7.88,8c1.75,1,2.68.34,2.73-1.62,0-1.14,0-2.27,0-3.41a5.62,5.62,0,0,0-5.72-6C321.84,28,319.65,27.09,318,29.23Zm6.3-10.91.09-.29h.65c3.23,0,3.6-.52,2.74-3.5a6.74,6.74,0,0,1-.11-1.69c0-1.85,0-3.7,0-5.54,0-1.49-.76-2.1-2-1.13-2.68,2.09-5.16,4.33-6.33,7.75a2.38,2.38,0,0,0,1,3.14A17.45,17.45,0,0,0,324.33,18.32ZM341,34.73c.18.72.45,2,.82,3.27.57,2,1.66,1.67,2.73.45a18.48,18.48,0,0,0,2.92-3.84,8.69,8.69,0,0,0,.71-4.16c0-.52-1.49-1.46-2.1-1.32a12.31,12.31,0,0,0-4.66,1.92C340.83,31.47,341.13,33.05,341,34.73Zm-5.29-23-.25-.06c0-.64.24-1.43-.05-1.89a31,31,0,0,0-2.53-3.11c-.68.94-1.4,1.86-2,2.84a1.68,1.68,0,0,0,0,1c.27,1.92.52,3.86.88,5.77a6.89,6.89,0,0,0,.88,1.67c.62-.41,1.58-.69,1.79-1.25A47,47,0,0,0,335.69,11.68Zm4.54-1.32c-.68.64-1.46,1-1.61,1.56A4.69,4.69,0,0,0,343,18c.49,0,1,.22,1.45.28.64.09,1.28.13,1.92.19A11.1,11.1,0,0,0,346,16.6a6.37,6.37,0,0,0-1.16-2.46C343.51,12.85,342,11.77,340.23,10.36Z"/><path class="cls-2" d="M229.35,18.11c.29-2.3.53-5.45,1.13-8.54.19-1,1.24-1.84,2-2.65A30.27,30.27,0,0,1,237,2.58c1.32-.9,3.21-1.76,4.66-1.51a31.34,31.34,0,0,1,7.18,2.67A49.78,49.78,0,0,1,255,6.91c5.2,3.29,9.85,7.17,12.56,12.87a5.05,5.05,0,0,1,.38,2c.05,2.35.14,4.71,0,7.05a15.24,15.24,0,0,1-1.07,3.27,35.5,35.5,0,0,1-1.08,3.55c-1.71,3.9-5.35,5.67-8.8,7.6a11.45,11.45,0,0,1-9.37.64c-6-2.27-11.71-5.34-14.35-11.89-.95-2.38-2.58-4.52-3.33-6.94C229.26,23.2,229.52,21,229.35,18.11Zm3.18-.53c.4,1.85.47,3.47,1.15,4.79.3.58,1.82.7,2.8.72a1.9,1.9,0,0,0,1.53-1c.46-1.75.47-3.63,1-5.33,1.25-3.77,2.15-6.83,7.19-6.43,4.28.33,7.75,2.15,9.73,6.21,1.06,2.18,2.26,4.3,3.33,6.48.76,1.55,2.13,1.07,3.14.76.63-.2,1.49-1.47,1.34-2-.63-2.38-1.12-4.88-3.45-6.49-1.27-.88-2.18-2.25-3.38-3.25-1.58-1.32-3.23-2.55-4.93-3.71A19.11,19.11,0,0,0,249.25,7c-2.36-1.08-4.74-2.78-7.37-1.95-2.34.73-4.89,1.71-5.71,4.56-.1.34-.2.8-.45.94C232.64,12.17,233.91,15.58,232.53,17.58Zm17.64,22.8c2.62.2,5.94-2.05,9.34-4,1.36-.76,1.33-2,0-2.92a5.36,5.36,0,0,0-2.67-1.2c-5.92-.05-11.85-.28-17.77-.07-1.19,0-1.73.89-1,1.68C240.85,37.15,243.79,40.26,250.17,40.38ZM242.88,20.3h.06a7.5,7.5,0,0,1,0,1.06c-.27,2,.47,2.81,2.59,2.71,1.36-.06,2.73.63,4.1.64s3.16,0,4.17-.72c1.38-1.05.86-2.76,0-4.21a24.24,24.24,0,0,1-1.5-3c-1.21-2.86-3.73-2.49-6.12-2.52-2.12,0-2.37,1.83-3,3.12A8.25,8.25,0,0,0,242.88,20.3ZM261,29.92l0-.73a12.41,12.41,0,0,0-1.28-.38c-1.87-.33-3.74-.61-5.6-1-2.11-.42-4.21-1-6.33-1.36a11.13,11.13,0,0,0-3.1-.18c-1,.1-1.88.72-2.82.72-1.16,0-2.31-.51-3.48-.58a9,9,0,0,0-2.29.45c.42.53.73,1.36,1.26,1.53A28.23,28.23,0,0,0,243.51,30c3,.26,6.33-.71,8.93.32C255.74,31.56,258.17,29.32,261,29.92Z"/><path class="cls-2" d="M135,24.5c-.72,2.74-1.78,5.46-2.05,8.25-.23,2.3-1.57,3.84-2.57,5.64a6.11,6.11,0,0,1-1.82,1.83c-1.13.82-2.39,1.45-3.52,2.26-3.1,2.23-6.73,2.2-10.08,1.53-2.46-.5-4.69-2.34-6.94-3.73-4.1-2.53-6.77-6.37-8.84-10.54a22.84,22.84,0,0,1-2.47-9.24A25.23,25.23,0,0,1,98.8,10c.5-1.25,1.83-2.18,2.84-3.21,1.21-1.23,2.52-2.36,3.71-3.61a6.63,6.63,0,0,1,6-2.1c2.81.52,5.82,1,8.07,3.22.83.84,2,1.32,2.91,2.09q3.64,3.11,7.2,6.32c3.45,3.13,5.54,6.84,4.88,11.7Zm-9.53-3.87A8.94,8.94,0,0,0,124.35,19c-2.94-2.79-5.89-5.56-8.92-8.26-2.4-2.14-2.56-2.2-4.71.27-2,2.28-3.7,4.78-5.44,7.24-1,1.44-.58,2.82.41,4.17q4.11,5.6,8.13,11.25c1.26,1.77,3.12,1.72,4.13-.2,2.06-3.92,3.73-8.06,7-11.27C125.21,21.84,125.24,21.26,125.47,20.63ZM112.4,39.55c1.92-1.73,2-2,1.14-3.09-1.71-2-3.5-4-5.22-6.08A43.4,43.4,0,0,1,104,24.9c-.75-1.26-1.6-1.56-2.5-1-.46.3-.48,1.64-.29,2.41a15.3,15.3,0,0,0,1.5,3.87c1.06,1.88,2,3.95,3.59,5.39C108.05,37.25,110.41,38.31,112.4,39.55Zm8.47-2.33c1.74,2,3.24,1.8,4.45-.38a26.52,26.52,0,0,1,2.71-4c1.67-2.06,2.21-5.9.86-8.23C125,28.08,122.67,32.5,120.87,37.22Zm6.72-21.33c0-.13.06-.3,0-.4a4.28,4.28,0,0,0-.64-.83c-2.35-2.36-4.75-4.68-7.06-7.07-1.16-1.19-1.87-.89-2.5.4C121.38,13.46,125.29,16.48,127.59,15.89ZM103,14.17c1.21-1.26,2.42-2.43,3.5-3.7A2.84,2.84,0,0,0,107,8.81c0-.13-.85-.49-1.22-.4C103.61,8.94,102.17,12.12,103,14.17Z"/><path class="cls-2" d="M443.58,19.92c.4-2.62.67-5.27,1.23-7.87.71-3.26,3.13-5.41,5.5-7.54A16.91,16.91,0,0,1,451.88,3a5,5,0,0,1,2.31-1.19A23.11,23.11,0,0,1,464.75,4c4.57,2,8.05,5.12,11.52,8.4,2.4,2.26,3.25,5.17,3.51,8.33.07.76-.06,1.77.37,2.24,1.87,2.09.75,4.33.25,6.33a68.26,68.26,0,0,1-3.3,9c-.25.6-1.15.92-1.72,1.41-5.41,4.55-11.34,4.76-17.54,2-2.34-1-5-2-6.71-3.72a28.21,28.21,0,0,1-6.95-11.35c-.58-2-.1-4.38-.1-6.59Zm21.66-3.4.63-.08c-.41-2.84-.75-5.69-1.3-8.5-.11-.54-1.08-.91-1.65-1.36-.4.54-1.14,1.07-1.17,1.63a38,38,0,0,0,1.73,14.33,2.73,2.73,0,0,1-3.11,3.68,75.16,75.16,0,0,0-7.77-.78,7,7,0,0,0-3.17,1,2.07,2.07,0,0,0,.07,1.7c2.58,1.26,5.2,2.46,8.23,1.91a7,7,0,0,1,1.91.16,41.67,41.67,0,0,0,5.64.59,53.18,53.18,0,0,0,7.54-.83,5.74,5.74,0,0,0,2.81-1.44,2.15,2.15,0,0,0-.34-2c-1-.52-1.87-1.41-3.48-.64-2.4,1.13-4.76,1.37-5.7-2C465.46,21.49,465.51,19,465.24,16.52Zm-6.64,1.31c-.28-2.74-.49-5.68-.93-8.59-.39-2.63-2.89-3.57-4.82-2-3.85,3.2-6.16,7.08-5.83,12.29.17,2.62,1.09,3.65,3.78,3.59.9,0,1.81-.11,2.71-.19C458,22.53,458.6,21.93,458.6,17.83Zm14.69,16.34a7.79,7.79,0,0,0-2.31-1c-5.43-.36-10.87-.66-16.31-.86a7.31,7.31,0,0,0-2.38.81c.33.88.4,2.13,1,2.56a51.68,51.68,0,0,0,4.83,2.4C463.42,40.84,469.73,40,473.29,34.17Zm-.94-11.86c3.23,0,3.79-1.12,3-4a13.64,13.64,0,0,0-3.73-6.22,9.37,9.37,0,0,0-2.06-1.23c-.32.69-1,1.4-.9,2.06a41.47,41.47,0,0,0,1,7C469.94,21.2,470.51,22.87,472.35,22.31Z"/><path class="cls-2" d="M48.31,22.83c.46-3,.69-5.69,1.31-8.26a9,9,0,0,1,2.07-3.38,101.37,101.37,0,0,1,7.57-8.32A8.54,8.54,0,0,1,64,1c3.46-.35,7-.27,10.12,1.62,2.47,1.48,5.21,2.67,7.32,4.57a30.83,30.83,0,0,1,7.72,10,21,21,0,0,1,1.12,3.77c1.09,4.41,2.09,9,0,13.21-1.19,2.45-3.38,4.49-5.38,6.45a17.13,17.13,0,0,1-4.57,3A12.36,12.36,0,0,1,75.8,45c-4.23.2-8.55.66-12.49-1.6-4.86-2.78-9.39-5.9-11.8-11.25C51,31,50,30.18,49.65,29.08,49,27,48.7,24.74,48.31,22.83Zm3-.37c.52,1.61.8,2.84,1.3,4,.78,1.77,1.68,3.49,2.59,5.2,3.1,5.85,7.73,9.38,14.62,9.53.67,0,1.34.53,2,.52,1,0,2.23,0,2.84-.56A2.78,2.78,0,0,0,75,38.49a102.55,102.55,0,0,0-6.28-10.55c-3.32-4.64-7-9-10.54-13.5-1.07-1.36-2.65-1.5-3.39-.06C53.44,17,52.41,19.85,51.3,22.46ZM86.54,27l.46-.1c-.63-2.85-.93-5.82-2-8.51A25.52,25.52,0,0,0,76.41,7.27c-2.71-2.06-6-2.81-9.23-3.24-1.45-.19-2.63.61-2.36,2.24a9.56,9.56,0,0,0,1.41,3.47c1,1.58,2.37,3,3.48,4.49,1.8,2.5,3.48,5.08,5.28,7.57,2.31,3.18,4.62,6.35,7.09,9.4a3.31,3.31,0,0,0,2.62,1.2c.74-.15,1.5-1.33,1.77-2.2A10.93,10.93,0,0,0,86.54,27Zm-4.16,9.6A5.69,5.69,0,0,0,82,35.14c-1.33-2-2.64-4-4.09-5.85-1-1.35-2.35-2.47-3.39-3.82-2-2.55-3.77-5.2-5.69-7.78-.59-.79-1.37-1.44-2-2.22-1.6-2-3.08-4.17-4.76-6.14-.44-.51-1.43-.57-2.16-.83,0,.85-.36,1.89,0,2.53a85.36,85.36,0,0,0,4.64,7.23c2.48,3.48,5.32,6.73,7.56,10.35,1.93,3.12,3.07,6.74,6.29,8.93.66.45,1.65,1,2.23.83C81.41,38.1,81.92,37.12,82.38,36.61Z"/><path class="cls-2" d="M420.68,44.66c-2.85-.73-6.07-1-8.72-2.4-2.39-1.24-4.3-3.53-6.16-5.6-1.63-1.81-3.4-3.76-4.22-6-1.45-3.9-3.35-8-2.29-12.22.87-3.52,1.53-7.29,4.6-10a22.28,22.28,0,0,0,3.58-4.42c1.48-2.16,3.59-2.85,6-3.2C417.25.36,420,2,422.65,4.35s5.6,4.09,8,6.51c1.91,1.93,4.4,3.65,4.43,7,0,1.53.84,3,1.3,4.58.05.14.21.31.17.38-1.36,2.44,1,4.85,0,7.32s-1.36,4.86-2.47,7.07c-1.5,3-4.6,4.48-7.42,6C425,44.06,422.93,44.14,420.68,44.66Zm-2.95-13.8c2.08,0,4.16,0,6.23,0,2.52-.06,3.48-1.62,2.24-3.82s-2.86-4.48-4.19-6.77c-1.64-2.82-3.14-5.72-4.72-8.56-.33-.59-.77-1.12-1.15-1.67-.6.62-1.49,1.15-1.74,1.89-1.7,5.06-3.18,10.2-4.89,15.26-.75,2.22,0,3.62,2.42,3.67C413.86,30.9,415.8,30.86,417.73,30.86Zm1.95,9.45c3.81-.09,7.24-1.09,9.81-4.12.65-.77,1.24-1.82-.16-2.11a73.67,73.67,0,0,0-7.72-1c-1-.1-1.94.07-2.89,0-1.36-.14-2.71-.45-4.07-.62a6.08,6.08,0,0,0-2,0c-1.39.29-3.18.32-4,1.2-1.09,1.16,0,2.58,1.23,3.33C412.83,38.88,416,40.49,419.68,40.31ZM433,25.24a32.1,32.1,0,0,1-1-5.46A7.12,7.12,0,0,0,429.41,14c-2.47-2-5-3.9-7.57-5.8a7.29,7.29,0,0,0-1.67-.67,7,7,0,0,0-.63,1.86,3.36,3.36,0,0,0,.45,1.79c2.18,3.91,4.37,7.81,6.65,11.66a19,19,0,0,0,2.81,3.67,11.76,11.76,0,0,0,2.74,1.61C432.45,27.15,432.72,26.17,433,25.24ZM412.16,8.15c-.19-.27-.56-1.39-1-1.43-.66,0-1.43.63-2.07,1.1a14,14,0,0,0-1.13,1.27c-4.14,4.08-6.37,8.93-5.6,14.78.16,1.17,1.2,2.26,2,3.26a2,2,0,0,0,1.62-.51C408,21,410,15.24,412,9.54A9,9,0,0,0,412.16,8.15Z"/><path class="cls-2" d="M379.31,44.3c-4.86-.16-8.38-1.94-11.95-3.8-3.38-1.75-5-4.58-6.11-8-.47-1.42-1.31-2.73-1.82-4.14-1.41-3.93-2.57-7.89-.83-12a3.67,3.67,0,0,0,.09-1.69c-.4-4.27,1.6-7.66,4.25-10.66,2.25-2.56,6.84-3.14,10-1.9,3.83,1.5,7.66,2.89,10.51,6.08a4.56,4.56,0,0,0,2.44,1.21c3.49.62,4.45,3.69,5.93,6.11,1.08,1.78,1.47,4,2.29,5.92,1.51,3.61,1,7.2,0,10.76-.59,2.07-1.46,4.06-2.22,6.08-.09.26-.16.6-.36.74-2.08,1.44-4,3.18-6.31,4.16C383.22,44,380.84,44,379.31,44.3Zm-8.9-5.76a12.33,12.33,0,0,0,1.16-3.1c.34-5-.22-10.11.78-15.19.68-3.5.12-7.23.14-10.86,0-1.36.22-3.06-1.39-3.44-1.78-.42-3.73-.83-5.47.65-3.39,2.88-3,7.07-3.75,10.79a25.47,25.47,0,0,0,0,7.45c.27,2.65.32,5.49,2.68,7.45a1.58,1.58,0,0,1,.6.85C365.5,36.12,367.82,37.21,370.41,38.54ZM380.63,34h.11a12.28,12.28,0,0,1,0,1.92c-.31,2,.71,3.72,2.35,4a4.67,4.67,0,0,0,3.81-2c1.9-3.4,4.11-6.83,3.67-11-.18-1.66-.61-3.29-.83-4.94a13.92,13.92,0,0,0-5.2-9.73c-.39-.3-1.77-.13-1.85.11a16,16,0,0,0-.92,4.25c-.08,1.56.3,3,0,4.73C381,25.52,381,29.8,380.63,34ZM378.51,21.4c0-3.63.06-7.26-.05-10.89,0-.73-.66-1.45-1-2.17-.62.74-1.71,1.45-1.79,2.25q-.67,6.72-.91,13.47c-.15,4.06-.09,8.12,0,12.18a9.77,9.77,0,0,0,.89,3.19c.14.34.88.8,1.06.7a1.84,1.84,0,0,0,.9-1.19c.35-3.77.67-7.56.89-11.34C378.61,25.54,378.51,23.47,378.51,21.4Z"/><path class="cls-2" d="M291.6,45.42c-2.42-.4-4.85-.74-7.26-1.24a5.34,5.34,0,0,1-2.18-1.12,22.31,22.31,0,0,1-7.82-11.55c-.67-2.48-1.27-5-1.74-7.5a35.77,35.77,0,0,1-.82-6.65c0-2.14,0-4.6,1-6.35a25.19,25.19,0,0,1,5.79-6.58A12.1,12.1,0,0,1,284.23,2a7.59,7.59,0,0,1,4.5,1.23,109,109,0,0,1,9.85,6.45,20,20,0,0,1,3.81,4.22A32.45,32.45,0,0,1,306,19.57a30.34,30.34,0,0,1,1.49,5.6c.31,1.29.56,2.59.86,3.87.76,3.24-1,5.83-2.32,8.48-.92,1.87-1.37,4-3.42,5.35-2.24,1.52-4.65,1.81-7.12,2.16a27.73,27.73,0,0,1-3.87,0Zm12.91-16.8a16.42,16.42,0,0,0-.28-3.6c-1-3.33-2.13-6.62-3.3-9.89a5.59,5.59,0,0,0-1.31-1.6c-.73-.78-1.48-1.55-2.25-2.3a12.5,12.5,0,0,0-2.19-2,34.7,34.7,0,0,0-5-2.49,10.34,10.34,0,0,0-4.28-.89c-4.1.38-6.44,3.28-8.69,6.36-1.9,2.62-1.38,5.52-1.52,8.39a24.46,24.46,0,0,0,1.82,11.34c2.09,4.72,4.9,8.63,10.59,9.32a13.86,13.86,0,0,0,2.17.51,24.72,24.72,0,0,0,3.48-.64,50.15,50.15,0,0,0,5.33-1.2,4.57,4.57,0,0,0,2.55-1.76C303.13,35.19,304.86,32.2,304.51,28.62Z"/><path class="cls-2" d="M302.76,28.24c-.83,1-1.63,2.05-2.57,3-.63.63-1.55,1-2.2,1.59-2.33,2.23-4.92,3.17-8.12,2.08-.65-.22-1.46.06-2.12-.13a15.54,15.54,0,0,1-3.18-1.31,14.43,14.43,0,0,1-3.08-2.19c-3.6-3.57-5.36-7.82-4.6-13,.42-2.82,3.78-6,6.66-6.28a13.7,13.7,0,0,1,11,3.45A24.15,24.15,0,0,1,301,23.07,42.51,42.51,0,0,1,302.76,28.24ZM286.88,15.11c-4.71,0-6.12,1.32-6,5.76a13.74,13.74,0,0,0,.85,4.28c.89,2.39,2.36,4.6,4.79,5.46a24.21,24.21,0,0,0,7.07,1.06c3.41.14,5.75-4,4.4-7.17-1.18-2.77-3.17-4.81-5.24-6.87C291,15.94,289.18,14.82,286.88,15.11Z"/></g><g class="cls-1"><path class="cls-2" d="M671.23,23.14c-.65,3.62-.85,7.5-2.14,11-.83,2.25-3.4,3.81-4.93,5.87-1.64,2.21-4.09,2.51-6.39,3.18a24,24,0,0,1-4.71,1c-2,.18-4.09-.06-6.12.08-5.68.38-8.24-4.05-11.55-7.29a14.66,14.66,0,0,1-3-3.77,27.92,27.92,0,0,1-1.44-5.2c-.1-.41.05-1-.19-1.23-2.8-2.31-1-5.77-2.24-8.57-1-2.27,2.78-8.37,5.08-9.61A7.46,7.46,0,0,0,635,7.38,15.32,15.32,0,0,0,637.45,5C639.4,2,642.82,1.83,645.61.5a4.79,4.79,0,0,1,3.1-.38c3.66,1.1,7.87.88,10.7,4.13a4.8,4.8,0,0,0,1.39.94c1.47.8,3.12,1.26,3.75,3.18.23.71,1.48,1,2.07,1.68,1,1.1,2.18,2.23,2.57,3.56C670.09,16.67,670.56,19.85,671.23,23.14Zm-9,10.45.42-.65c-2-4-3.86-8-8.15-10.32-1.32-.7-2.17-3-1.49-3.87,1.48-1.8,3-3.59,4.49-5.34.89-1,1.39-4.44.75-5.63a1.72,1.72,0,0,0-3.1-.31c-.35.43-.48,1-.86,1.43a20,20,0,0,0-5.73,9.27c-.17.65-1.46,1.37-2.28,1.42-2,.14-2.72-1.33-3.35-3.05a40.06,40.06,0,0,0-3.28-6.67c-.3-.51-1.65-.58-2.46-.48-.25,0-.42,1.3-.5,2-.27,2.73,2.35,3.93,3.31,6a5.61,5.61,0,0,0,2,2.29,4.64,4.64,0,0,1,1.23,7.08,27.39,27.39,0,0,0-3.7,5.8,4.64,4.64,0,0,0,.51,4c1,1.12,3,0,3.94-1.88.42-.81.93-1.58,1.32-2.4,1-2.14,1.89-4.3,2.88-6.43.45-.94,1.07-2.57,1.55-2.55a5.17,5.17,0,0,1,3.2,1.51c2.07,2.19,3.79,4.71,5.87,6.89C659.64,32.66,661.07,33,662.24,33.59Zm4-11h.07a31.56,31.56,0,0,0-.37-5.85,5.09,5.09,0,0,0-2.32-3.17c-1.54-.73-2.55.51-3.1,2A4.36,4.36,0,0,1,659.25,17a3.1,3.1,0,0,0-.61,4.38,44.61,44.61,0,0,0,4.66,5.44,2.5,2.5,0,0,0,2.12.43c.4-.11.7-1.08.78-1.7A22.62,22.62,0,0,0,666.24,22.6ZM651,40.27l0,.17c2-.37,4-.64,6-1.15,1.64-.42,2-2.39.89-3.8-.78-1-1.52-2-2.23-3-1.7-2.48-3.68-2.64-5.48-.28a31.41,31.41,0,0,0-2.89,4.6c-.94,1.78.14,3.38,2.21,3.5C650,40.3,650.45,40.27,651,40.27ZM632,22.05c.43,2.15.73,4.31,1.33,6.38.32,1.09,1.19,2.07,2.62,1.23,2.67-1.58,4.23-6.82,2.7-9.49a25.35,25.35,0,0,0-3.27-4.38c-.91-1-1.87-1.09-2.19.64S632.37,20.11,632,22.05ZM645.57,3.44c-3.44,2.72-3.44,2.72-1.48,7.1a5.22,5.22,0,0,0,.26.79c.33.53.67,1.39,1.08,1.44a2.48,2.48,0,0,0,2-.67,18.9,18.9,0,0,0,2.3-4.66A2.84,2.84,0,0,0,649,5,13.58,13.58,0,0,0,645.57,3.44Z"/><path class="cls-2" d="M714.32,25.3,712,33.14c-.24.8-.48,1.6-.74,2.4-.89,2.76-3.55,3.66-5.58,5.23-1.25,1-2.47,1.94-3.71,2.91-.22.17-.45.44-.68.46-3.67.3-7.52,2.19-11,0C685.84,41.19,680.55,39,679,33c-.58-2.28-1.91-4.36-2.74-6.58a18.49,18.49,0,0,1-.59-3.27l-.75-4.3c0-.14-.12-.31-.07-.42,1.23-2.75.77-5.91,3.13-8.52,2.64-2.91,6.13-4.68,8.71-7.54a1.33,1.33,0,0,1,.69-.48c3.85-.27,7.84-1.24,11.43.84a38,38,0,0,1,11.43,9.86C713,16.11,713.89,19.73,714.32,25.3ZM685.64,20l.07-.28h1.08c3.15,0,3.66-.43,3.53-3.62-.1-2.22-.61-4.43-.81-6.65s-.89-2.53-2.88-1.66c-3.61,1.58-5.19,4.88-6.8,8.06a3,3,0,0,0,.76,2.84A24.47,24.47,0,0,0,685.64,20Zm6.44,13.7c0-.92,0-1.85,0-2.77,0-2.41-.61-3-3.1-3-1.72,0-3.44-.07-5.15,0-.78,0-2.14.34-2.19.67a5,5,0,0,0,.45,3.16,33.39,33.39,0,0,0,4.62,6,5.44,5.44,0,0,0,3.9,1.37c1.47-.13,1.56-1.77,1.49-3.11C692,35.29,692.08,34.5,692.08,33.72Zm9.12-20.08c0,1,0,2,0,3a2.1,2.1,0,0,0,2.31,2.23c1.74-.07,3.9.8,4.81-1.6a2.21,2.21,0,0,0-.18-1.82c-1.51-1.95-3.11-3.81-4.76-5.64a1.69,1.69,0,0,0-1.47-.48c-.36.12-.63.85-.68,1.35A26.87,26.87,0,0,0,701.2,13.64Zm2.72,23.53c1.17-1.36,2.18-2.65,3.29-3.83,1.94-2,1.74-3.52-.94-4.3-2.36-.68-4.65-.5-5,1.59C700.86,33,701.45,35.07,703.92,37.17Zm-6.69-24.78h0c0-1.64.06-3.28,0-4.91a5.77,5.77,0,0,0-.63-1.65c-.61.27-1.47.37-1.79.83a6.14,6.14,0,0,0-1,6.17,2.43,2.43,0,0,1,0,1.51c-.39,1.24.58,3.84,1.74,4.32s1.65,0,1.66-1.16C697.25,15.8,697.23,14.09,697.23,12.39ZM686.14,26l.06-.32a24.36,24.36,0,0,0,3.42,0c.55-.07,1.43-.63,1.46-1a2.27,2.27,0,0,0-.86-1.81c-2.9-1.66-6.08-.79-9.15-.68-.47,0-1.17.94-1.25,1.51-.05.39.7,1.17,1.23,1.31C682.72,25.46,684.44,25.7,686.14,26Zm18-4.08c-.21,0-.51-.09-.63,0-.78.66-1.87,1.23-2.21,2.09-.49,1.23.82,1.26,1.63,1.8,2.11,1.37,3.79-.53,5.68-.32.18,0,.63-.75.62-1.15s-.27-1.29-.6-1.39C707.17,22.55,705.64,22.3,704.14,22Zm-6.06,11.91h0a21.74,21.74,0,0,0-.07-4c-.13-.67-1-1.26-1.61-1.74-.13-.1-1.07.4-1.07.63,0,3-.91,6.1.76,8.94a1.78,1.78,0,0,0,1.28.73c.22,0,.66-.7.69-1.11C698.15,36.15,698.08,35,698.08,33.87Zm-.34-10-1.49-1.77c-.36.64-1,1.26-1,1.91s.65,1.12,1,1.68Z"/><path class="cls-2" d="M532.76,26.09c-.4,2.33-.76,4.67-1.25,7a3.69,3.69,0,0,1-1.06,1.55c-1.86,1.89-3.67,3.84-5.67,5.58-4.59,4-9.86,4.68-15.77,3.41a34.37,34.37,0,0,1-8.53-3.55,20,20,0,0,1-7.34-6.69c-2.33-3.36-2.4-7.3-3.56-11-.71-2.25,0-4.32.05-6.41.09-3.06,2.22-5.6,4.32-7.67A70.2,70.2,0,0,1,502.1,2c.45-.32,1.25-.13,1.88-.23,1.45-.23,2.89-.5,4.34-.75.14,0,.3-.11.41-.07,2.51.9,5.43.19,7.68,2.33,1.55,1.47,3.84,2.16,5.42,3.61,3,2.75,6.23,5.47,8.39,8.82,1.88,2.91,3.07,6.55,2,10.36Zm-28,9.34a7.24,7.24,0,0,0,.2,2.47,3.66,3.66,0,0,0,1.72,1.39c.12.07.93-.63,1-1,.38-2.77.66-5.56.91-8.36a3,3,0,0,0-.25-1.65c-1.12-1.87.2-2.47,1.54-2.45,2.59.05,5.18.47,7.77.71a11,11,0,0,0,2.15,0c1.95-.23,3.9-.45,5.83-.83a3.75,3.75,0,0,0,1.81-1.1c-.33-.9-.79-2.26-1.49-2.45a100.93,100.93,0,0,0-11.66-2.67c-3.55-.57-7.18-.65-10.77-.94-.36,0-.72,0-1.08-.06-2.37-.26-4.75-.67-7.13-.71A3.11,3.11,0,0,0,493,19.14a4,4,0,0,0,3,5.72,50,50,0,0,0,6.9.83c2,.08,3,.81,2.83,2.81C505.45,30.8,505.1,33.08,504.8,35.43Zm3.27-30.7c-1.28.12-2.84-.17-3.77.45-2.93,2-5.66,4.25-8.38,6.51-.88.73-.87,1.78.48,2.06,3.15.64,6.31,1.3,9.5,1.67,2.74.32,5.53.1,8.27.38,2.92.3,5.79,1.05,8.71,1.32,2.12.2,2.89-1,1.65-2.72a22,22,0,0,0-4.66-4.68C516.39,7.11,512.86,4.42,508.07,4.73Zm9.22,24.8,0,.13c-.78,0-1.57,0-2.36,0A3.16,3.16,0,0,0,512,34a9.25,9.25,0,0,1,.61,2.84c.1,2.8,2.14,4.21,4.65,3a33.7,33.7,0,0,0,5.92-3.43,16.2,16.2,0,0,0,3.26-4.1,2,2,0,0,0-.72-1.65C522.89,30.16,520.09,29.87,517.29,29.53Zm-20-1c-.69.62-1.35,1-1.65,1.55a1.94,1.94,0,0,0,.17,1.54A7.77,7.77,0,0,0,497.43,34a6.54,6.54,0,0,0,2.28.79c.34-1.26,1.27-2.74.88-3.7S498.53,29.42,497.28,28.51Z"/><path class="cls-2" d="M825.78,45.33c-3.26-.43-6.14-.69-9-1.25A7.38,7.38,0,0,1,814,42.35c-2.35-1.87-4.9-3.57-6.34-6.32s-3.14-5.24-3.88-8.07c-.92-3.52-2.82-7.25-.11-10.91a2.6,2.6,0,0,0,.39-1.61c-.19-3.95,1.81-6.65,4.9-8.79a7.69,7.69,0,0,0,1-.86c4-3.89,7-4,12.19-1.81,4.22,1.82,8.47,3.6,12,6.48s7.1,6.11,7.57,11.23a15.45,15.45,0,0,0,.88,3.86c1.68,4.55-.89,8-2.85,11.66-.43.8-1,1.54-1.37,2.36-1.31,2.81-3.74,4-6.59,4.64C829.63,44.64,827.55,45,825.78,45.33Zm-2.79-26a14,14,0,0,0-1.07,1.35c-1.55,2.52-2,2.73-4.68,1.34-2.41-1.27-4.52-3.23-7.6-2.67-1.15.21-2.54-.28-2.53,1.69,0,1.76.55,2.9,2.51,3a3.91,3.91,0,0,1,1.65.3,18.9,18.9,0,0,0,8.92,2.26c1.7,0,2.45.87,2.44,2.53,0,2.64-.06,5.27,0,7.91a5.75,5.75,0,0,0,.76,2.77c.38.61,1.33.86,2,1.28.33-.62.93-1.22.94-1.84.1-3.57,0-7.13.06-10.69,0-2.61,1.84-3.57,4.35-2.78a18.82,18.82,0,0,0,5.81.69c.62,0,1.43-1,1.77-1.77a1.89,1.89,0,0,0-.62-1.74c-2.47-.7-5.31-2.18-7.45-1.53C827.19,22.38,825.46,21.09,823,19.34ZM807.3,29.23c.28.68.47,1.28.76,1.83a19.14,19.14,0,0,0,7.88,8c1.75,1,2.68.34,2.73-1.62,0-1.14,0-2.27,0-3.41A5.62,5.62,0,0,0,813,28C811.1,28,808.91,27.09,807.3,29.23Zm6.29-10.91.09-.29h.65c3.23,0,3.61-.52,2.74-3.5a6.74,6.74,0,0,1-.11-1.69c0-1.85,0-3.7,0-5.54,0-1.49-.76-2.1-2-1.13-2.68,2.09-5.16,4.33-6.33,7.75a2.38,2.38,0,0,0,1,3.14A17.45,17.45,0,0,0,813.59,18.32Zm16.65,16.41c.18.72.45,2,.82,3.27.57,2,1.66,1.67,2.73.45a18.14,18.14,0,0,0,2.92-3.84,8.69,8.69,0,0,0,.71-4.16c0-.52-1.48-1.46-2.1-1.32a12.31,12.31,0,0,0-4.66,1.92C830.09,31.47,830.39,33.05,830.24,34.73Zm-5.29-23-.25-.06c0-.64.24-1.43-.05-1.89a32.31,32.31,0,0,0-2.52-3.11c-.69.94-1.41,1.86-2,2.84a1.76,1.76,0,0,0,0,1c.27,1.92.52,3.86.89,5.77a6.51,6.51,0,0,0,.87,1.67c.62-.41,1.58-.69,1.79-1.25A47,47,0,0,0,825,11.68Zm4.54-1.32c-.68.64-1.46,1-1.61,1.56A4.69,4.69,0,0,0,832.25,18c.48,0,1,.22,1.44.28.64.09,1.28.13,1.93.19a12.16,12.16,0,0,0-.37-1.91,6.37,6.37,0,0,0-1.16-2.46C832.77,12.85,831.23,11.77,829.49,10.36Z"/><path class="cls-2" d="M718.61,18.11c.29-2.3.54-5.45,1.13-8.54.19-1,1.24-1.84,2-2.65a29.86,29.86,0,0,1,4.52-4.34c1.31-.9,3.2-1.76,4.65-1.51a31.34,31.34,0,0,1,7.18,2.67,49.07,49.07,0,0,1,6.11,3.17c5.2,3.29,9.85,7.17,12.56,12.87a5.23,5.23,0,0,1,.39,2c0,2.35.13,4.71,0,7.05a15.24,15.24,0,0,1-1.07,3.27A35.5,35.5,0,0,1,755,35.7c-1.71,3.9-5.35,5.67-8.8,7.6a11.45,11.45,0,0,1-9.37.64c-6-2.27-11.71-5.34-14.35-11.89-1-2.38-2.57-4.52-3.33-6.94C718.52,23.2,718.78,21,718.61,18.11Zm3.18-.53c.4,1.85.47,3.47,1.15,4.79.3.58,1.82.7,2.8.72a1.93,1.93,0,0,0,1.54-1c.46-1.75.46-3.63,1-5.33,1.25-3.77,2.16-6.83,7.19-6.43,4.28.33,7.75,2.15,9.73,6.21,1.06,2.18,2.26,4.3,3.33,6.48.76,1.55,2.13,1.07,3.14.76a2.51,2.51,0,0,0,1.35-2c-.64-2.38-1.13-4.88-3.45-6.49-1.28-.88-2.19-2.25-3.39-3.25a61.64,61.64,0,0,0-4.93-3.71A19.11,19.11,0,0,0,738.51,7c-2.36-1.08-4.73-2.78-7.37-1.95-2.34.73-4.89,1.71-5.71,4.56-.1.34-.2.8-.45.94C721.9,12.17,723.17,15.58,721.79,17.58Zm17.65,22.8c2.61.2,5.93-2.05,9.33-4,1.36-.76,1.33-2,0-2.92a5.36,5.36,0,0,0-2.67-1.2c-5.92-.05-11.85-.28-17.77-.07-1.18,0-1.73.89-1,1.68C730.11,37.15,733.05,40.26,739.44,40.38Zm-7.3-20.08h.06a7.5,7.5,0,0,1,0,1.06c-.27,2,.47,2.81,2.6,2.71,1.35-.06,2.72.63,4.09.64s3.17,0,4.17-.72c1.38-1.05.86-2.76,0-4.21a22.87,22.87,0,0,1-1.49-3c-1.22-2.86-3.74-2.49-6.13-2.52-2.12,0-2.37,1.83-3,3.12A8.25,8.25,0,0,0,732.14,20.3Zm18.17,9.62,0-.73a11.71,11.71,0,0,0-1.28-.38c-1.87-.33-3.74-.61-5.6-1-2.11-.42-4.2-1-6.33-1.36a11.13,11.13,0,0,0-3.1-.18c-1,.1-1.88.72-2.82.72-1.15,0-2.31-.51-3.47-.58a8.93,8.93,0,0,0-2.29.45c.41.53.72,1.36,1.25,1.53A28.23,28.23,0,0,0,732.77,30c3,.26,6.33-.71,8.94.32C745,31.56,747.43,29.32,750.31,29.92Z"/><path class="cls-2" d="M624.26,24.5c-.72,2.74-1.78,5.46-2,8.25-.22,2.3-1.57,3.84-2.57,5.64a6.11,6.11,0,0,1-1.82,1.83c-1.13.82-2.39,1.45-3.52,2.26-3.1,2.23-6.73,2.2-10.07,1.53-2.47-.5-4.7-2.34-7-3.73-4.1-2.53-6.77-6.37-8.84-10.54A22.67,22.67,0,0,1,586,20.5,24.92,24.92,0,0,1,588.07,10c.49-1.25,1.83-2.18,2.83-3.21,1.21-1.23,2.52-2.36,3.71-3.61a6.64,6.64,0,0,1,6-2.1c2.81.52,5.83,1,8.07,3.22.83.84,2,1.32,2.91,2.09q3.65,3.11,7.2,6.32c3.45,3.13,5.54,6.84,4.88,11.7Zm-9.53-3.87A8.94,8.94,0,0,0,613.61,19c-2.94-2.79-5.89-5.56-8.91-8.26-2.4-2.14-2.57-2.2-4.72.27-2,2.28-3.7,4.78-5.44,7.24-1,1.44-.58,2.82.41,4.17q4.13,5.6,8.13,11.25c1.26,1.77,3.13,1.72,4.13-.2,2.06-3.92,3.73-8.06,6.95-11.27C614.47,21.84,614.5,21.26,614.73,20.63ZM601.67,39.55c1.91-1.73,2-2,1.13-3.09-1.71-2-3.5-4-5.22-6.08a44.32,44.32,0,0,1-4.35-5.48c-.74-1.26-1.59-1.56-2.5-1-.45.3-.48,1.64-.29,2.41a15.3,15.3,0,0,0,1.5,3.87,21.85,21.85,0,0,0,3.59,5.39C597.32,37.25,599.67,38.31,601.67,39.55Zm8.46-2.33c1.74,2,3.24,1.8,4.45-.38a26.52,26.52,0,0,1,2.71-4c1.67-2.06,2.21-5.9.87-8.23C614.21,28.08,611.93,32.5,610.13,37.22Zm6.73-21.33c0-.13,0-.3,0-.4a4.76,4.76,0,0,0-.65-.83c-2.35-2.36-4.75-4.68-7.06-7.07-1.16-1.19-1.87-.89-2.5.4C610.64,13.46,614.55,16.48,616.86,15.89Zm-24.6-1.72c1.21-1.26,2.42-2.43,3.51-3.7a2.83,2.83,0,0,0,.47-1.66c0-.13-.85-.49-1.22-.4C592.87,8.94,591.43,12.12,592.26,14.17Z"/><path class="cls-2" d="M932.85,19.92c.39-2.62.66-5.27,1.22-7.87.71-3.26,3.13-5.41,5.5-7.54A16.91,16.91,0,0,1,941.14,3a5,5,0,0,1,2.31-1.19A23.11,23.11,0,0,1,954,4c4.57,2,8,5.12,11.52,8.4,2.4,2.26,3.25,5.17,3.52,8.33.06.76-.07,1.77.36,2.24,1.87,2.09.75,4.33.25,6.33a68.26,68.26,0,0,1-3.3,9c-.25.6-1.15.92-1.72,1.41-5.41,4.55-11.34,4.76-17.54,2-2.34-1-5-2-6.71-3.72a28.21,28.21,0,0,1-6.95-11.35c-.58-2-.1-4.38-.1-6.59Zm21.65-3.4.64-.08c-.42-2.84-.76-5.69-1.31-8.5-.11-.54-1.08-.91-1.65-1.36-.4.54-1.13,1.07-1.17,1.63a37.85,37.85,0,0,0,1.74,14.33,2.74,2.74,0,0,1-3.12,3.68,75.16,75.16,0,0,0-7.77-.78,6.91,6.91,0,0,0-3.16,1c-.24.11-.2,1.57.06,1.7,2.58,1.26,5.2,2.46,8.24,1.91a6.88,6.88,0,0,1,1.9.16,41.67,41.67,0,0,0,5.64.59,53.48,53.48,0,0,0,7.55-.83,5.71,5.71,0,0,0,2.8-1.44,2.15,2.15,0,0,0-.34-2c-1-.52-1.87-1.41-3.48-.64-2.4,1.13-4.75,1.37-5.7-2C954.72,21.49,954.77,19,954.5,16.52Zm-6.63,1.31c-.29-2.74-.5-5.68-.94-8.59-.39-2.63-2.89-3.57-4.81-2-3.86,3.2-6.17,7.08-5.84,12.29.17,2.62,1.09,3.65,3.78,3.59.9,0,1.81-.11,2.71-.19C947.25,22.53,947.86,21.93,947.87,17.83Zm14.68,16.34a7.79,7.79,0,0,0-2.31-1c-5.43-.36-10.87-.66-16.31-.86a7.31,7.31,0,0,0-2.38.81c.33.88.4,2.13,1,2.56a51.68,51.68,0,0,0,4.83,2.4C952.68,40.84,959,40,962.55,34.17Zm-.94-11.86c3.23,0,3.79-1.12,3-4a13.63,13.63,0,0,0-3.72-6.22,9.85,9.85,0,0,0-2.06-1.23c-.32.69-1,1.4-.91,2.06a41.47,41.47,0,0,0,1,7C959.2,21.2,959.77,22.87,961.61,22.31Z"/><path class="cls-2" d="M537.57,22.83c.46-3,.69-5.69,1.31-8.26A8.9,8.9,0,0,1,541,11.19a99.48,99.48,0,0,1,7.56-8.32A8.54,8.54,0,0,1,553.27,1c3.46-.35,7-.27,10.12,1.62,2.47,1.48,5.21,2.67,7.32,4.57a30.83,30.83,0,0,1,7.72,10,21.87,21.87,0,0,1,1.13,3.77c1.08,4.41,2.08,9,0,13.21-1.19,2.45-3.38,4.49-5.38,6.45a17.13,17.13,0,0,1-4.57,3A12.36,12.36,0,0,1,565.06,45c-4.23.2-8.55.66-12.49-1.6-4.86-2.78-9.38-5.9-11.8-11.25-.48-1.07-1.53-1.93-1.86-3C538.27,27,538,24.74,537.57,22.83Zm3-.37c.52,1.61.8,2.84,1.3,4,.78,1.77,1.68,3.49,2.59,5.2,3.1,5.85,7.74,9.38,14.62,9.53.67,0,1.34.53,2,.52,1,0,2.23,0,2.84-.56a2.73,2.73,0,0,0,.35-2.63A100.79,100.79,0,0,0,558,27.94c-3.32-4.64-7-9-10.54-13.5-1.07-1.36-2.65-1.5-3.39-.06C542.7,17,541.67,19.85,540.56,22.46ZM575.8,27l.46-.1c-.63-2.85-.93-5.82-2-8.51a25.45,25.45,0,0,0-8.62-11.13C563,5.21,559.72,4.46,556.44,4c-1.45-.19-2.63.61-2.35,2.24a9.37,9.37,0,0,0,1.4,3.47c1,1.58,2.38,3,3.48,4.49,1.8,2.5,3.48,5.08,5.28,7.57,2.31,3.18,4.63,6.35,7.09,9.4A3.31,3.31,0,0,0,574,32.4c.74-.15,1.5-1.33,1.77-2.2A10.93,10.93,0,0,0,575.8,27Zm-4.15,9.6a6.69,6.69,0,0,0-.38-1.47c-1.34-2-2.65-4-4.1-5.85-1-1.35-2.35-2.47-3.38-3.82-2-2.55-3.78-5.2-5.7-7.78-.59-.79-1.37-1.44-2-2.22-1.6-2-3.08-4.17-4.76-6.14-.44-.51-1.43-.57-2.16-.83,0,.85-.36,1.89,0,2.53a85.36,85.36,0,0,0,4.64,7.23c2.48,3.48,5.32,6.73,7.56,10.35,1.93,3.12,3.07,6.74,6.29,8.93.66.45,1.65,1,2.23.83C570.67,38.1,571.18,37.12,571.65,36.61Z"/><path class="cls-2" d="M909.94,44.66c-2.85-.73-6.07-1-8.72-2.4-2.39-1.24-4.3-3.53-6.16-5.6-1.63-1.81-3.4-3.76-4.22-6-1.45-3.9-3.35-8-2.29-12.22.88-3.52,1.54-7.29,4.6-10a22.69,22.69,0,0,0,3.59-4.42c1.47-2.16,3.59-2.85,6-3.2,3.74-.53,6.49,1.09,9.14,3.46s5.61,4.09,8,6.51c1.91,1.93,4.4,3.65,4.43,7,0,1.53.84,3,1.31,4.58,0,.14.2.31.16.38-1.36,2.44,1,4.85,0,7.32s-1.36,4.86-2.46,7.07c-1.51,3-4.61,4.48-7.43,6C914.29,44.06,912.19,44.14,909.94,44.66Zm-3-13.8c2.08,0,4.16,0,6.23,0,2.52-.06,3.48-1.62,2.24-3.82s-2.86-4.48-4.19-6.77c-1.63-2.82-3.14-5.72-4.72-8.56-.33-.59-.77-1.12-1.15-1.67-.6.62-1.49,1.15-1.74,1.89-1.69,5.06-3.18,10.2-4.89,15.26-.75,2.22,0,3.62,2.42,3.67C903.13,30.9,905.06,30.86,907,30.86Zm2,9.45c3.8-.09,7.23-1.09,9.8-4.12.66-.77,1.24-1.82-.15-2.11a74.19,74.19,0,0,0-7.73-1c-1-.1-1.93.07-2.89,0-1.36-.14-2.7-.45-4.06-.62a6.14,6.14,0,0,0-2,0c-1.39.29-3.18.32-4,1.2-1.09,1.16,0,2.58,1.23,3.33C902.09,38.88,905.21,40.49,909,40.31Zm13.29-15.07a32.1,32.1,0,0,1-1-5.46A7.09,7.09,0,0,0,918.67,14c-2.47-2-5-3.9-7.56-5.8a7.56,7.56,0,0,0-1.68-.67,7.43,7.43,0,0,0-.63,1.86,3.36,3.36,0,0,0,.45,1.79c2.18,3.91,4.37,7.81,6.66,11.66a18.57,18.57,0,0,0,2.8,3.67,11.76,11.76,0,0,0,2.74,1.61C921.72,27.15,922,26.17,922.24,25.24ZM901.42,8.15c-.18-.27-.56-1.39-1-1.43-.66,0-1.42.63-2.07,1.1a14,14,0,0,0-1.13,1.27c-4.14,4.08-6.37,8.93-5.6,14.78.16,1.17,1.2,2.26,2,3.26a2,2,0,0,0,1.62-.51c2.09-5.67,4.07-11.38,6.07-17.08A9,9,0,0,0,901.42,8.15Z"/><path class="cls-2" d="M868.57,44.3c-4.86-.16-8.38-1.94-12-3.8-3.38-1.75-5-4.58-6.11-8-.47-1.42-1.31-2.73-1.82-4.14-1.41-3.93-2.57-7.89-.82-12a3.82,3.82,0,0,0,.08-1.69C847.56,10.4,849.55,7,852.2,4c2.26-2.56,6.84-3.14,10-1.9,3.84,1.5,7.66,2.89,10.51,6.08a4.56,4.56,0,0,0,2.44,1.21c3.49.62,4.45,3.69,5.93,6.11,1.08,1.78,1.47,4,2.29,5.92,1.51,3.61,1,7.2,0,10.76-.59,2.07-1.46,4.06-2.21,6.08-.1.26-.17.6-.37.74-2.07,1.44-4,3.18-6.3,4.16C872.48,44,870.11,44,868.57,44.3Zm-8.89-5.76a12.66,12.66,0,0,0,1.15-3.1c.34-5-.22-10.11.78-15.19.68-3.5.12-7.23.14-10.86,0-1.36.22-3.06-1.38-3.44-1.79-.42-3.74-.83-5.48.65-3.39,2.88-3,7.07-3.75,10.79a25.47,25.47,0,0,0,0,7.45c.27,2.65.32,5.49,2.69,7.45a1.62,1.62,0,0,1,.59.85C854.76,36.12,857.08,37.21,859.68,38.54ZM869.89,34H870A12.28,12.28,0,0,1,870,36c-.31,2,.71,3.72,2.35,4a4.67,4.67,0,0,0,3.81-2c1.9-3.4,4.12-6.83,3.67-11-.18-1.66-.61-3.29-.83-4.94a13.92,13.92,0,0,0-5.2-9.73c-.39-.3-1.77-.13-1.85.11a16,16,0,0,0-.92,4.25c-.08,1.56.3,3,0,4.73C870.28,25.52,870.22,29.8,869.89,34ZM867.77,21.4c0-3.63.06-7.26,0-10.89,0-.73-.66-1.45-1-2.17-.62.74-1.7,1.45-1.78,2.25q-.67,6.72-.92,13.47c-.14,4.06-.09,8.12,0,12.18a10,10,0,0,0,.89,3.19c.14.34.88.8,1.07.7a1.85,1.85,0,0,0,.89-1.19c.35-3.77.67-7.56.89-11.34C867.87,25.54,867.77,23.47,867.77,21.4Z"/><path class="cls-2" d="M780.86,45.42c-2.42-.4-4.85-.74-7.26-1.24a5.34,5.34,0,0,1-2.18-1.12,22.37,22.37,0,0,1-7.82-11.55c-.67-2.48-1.27-5-1.74-7.5a35.77,35.77,0,0,1-.82-6.65c0-2.14,0-4.6,1-6.35a25.37,25.37,0,0,1,5.79-6.58A12.1,12.1,0,0,1,773.49,2,7.55,7.55,0,0,1,778,3.27a109,109,0,0,1,9.85,6.45,20,20,0,0,1,3.81,4.22,32.45,32.45,0,0,1,3.65,5.63,30.34,30.34,0,0,1,1.49,5.6c.31,1.29.56,2.59.86,3.87.76,3.24-1,5.83-2.32,8.48-.92,1.87-1.37,4-3.42,5.35-2.24,1.52-4.65,1.81-7.12,2.16a27.59,27.59,0,0,1-3.86,0Zm12.91-16.8a17.06,17.06,0,0,0-.27-3.6c-1-3.33-2.14-6.62-3.31-9.89a5.59,5.59,0,0,0-1.31-1.6c-.73-.78-1.48-1.55-2.25-2.3a12.16,12.16,0,0,0-2.19-2,34.7,34.7,0,0,0-5-2.49,10.31,10.31,0,0,0-4.28-.89c-4.1.38-6.44,3.28-8.69,6.36-1.9,2.62-1.38,5.52-1.52,8.39a24.46,24.46,0,0,0,1.82,11.34c2.09,4.72,4.9,8.63,10.6,9.32a13.49,13.49,0,0,0,2.16.51,24.46,24.46,0,0,0,3.48-.64,49.6,49.6,0,0,0,5.33-1.2,4.57,4.57,0,0,0,2.55-1.76C792.39,35.19,794.12,32.2,793.77,28.62Z"/><path class="cls-2" d="M792,28.24c-.83,1-1.63,2.05-2.57,3-.63.63-1.55,1-2.2,1.59-2.33,2.23-4.92,3.17-8.12,2.08-.64-.22-1.46.06-2.12-.13a15.54,15.54,0,0,1-3.18-1.31,14.69,14.69,0,0,1-3.08-2.19c-3.6-3.57-5.36-7.82-4.6-13,.42-2.82,3.79-6,6.66-6.28a13.7,13.7,0,0,1,11,3.45,24.15,24.15,0,0,1,6.43,7.59A42.51,42.51,0,0,1,792,28.24ZM776.14,15.11c-4.71,0-6.12,1.32-6,5.76a13.76,13.76,0,0,0,.86,4.28c.88,2.39,2.35,4.6,4.78,5.46a24.21,24.21,0,0,0,7.07,1.06c3.41.14,5.75-4,4.4-7.17A21.93,21.93,0,0,0,782,17.63C780.31,15.94,778.45,14.82,776.14,15.11Z"/></g><g class="cls-1"><path class="cls-2" d="M1160.49,23.14c-.65,3.62-.85,7.5-2.14,11-.83,2.25-3.4,3.81-4.93,5.87-1.63,2.21-4.08,2.51-6.39,3.18a24,24,0,0,1-4.7,1c-2,.18-4.1-.06-6.13.08-5.68.38-8.23-4.05-11.55-7.29a14.66,14.66,0,0,1-3-3.77,27.9,27.9,0,0,1-1.43-5.2c-.11-.41,0-1-.2-1.23-2.79-2.31-1-5.77-2.24-8.57-1-2.27,2.78-8.37,5.08-9.61a7.18,7.18,0,0,0,1.46-1.19A15.32,15.32,0,0,0,1126.71,5c2-2.94,5.37-3.13,8.16-4.46a4.79,4.79,0,0,1,3.1-.38c3.66,1.1,7.87.88,10.71,4.13a4.62,4.62,0,0,0,1.38.94c1.47.8,3.12,1.26,3.75,3.18.23.71,1.48,1,2.07,1.68,1,1.1,2.18,2.23,2.57,3.56C1159.35,16.67,1159.82,19.85,1160.49,23.14Zm-9,10.45.43-.65c-2-4-3.87-8-8.16-10.32-1.32-.7-2.17-3-1.49-3.87,1.48-1.8,3-3.59,4.49-5.34.89-1,1.39-4.44.75-5.63a1.71,1.71,0,0,0-3.09-.31c-.35.43-.49,1-.87,1.43a20,20,0,0,0-5.73,9.27c-.17.65-1.46,1.37-2.28,1.42-2,.14-2.72-1.33-3.35-3.05a40.06,40.06,0,0,0-3.28-6.67c-.3-.51-1.64-.58-2.46-.48-.25,0-.42,1.3-.5,2-.27,2.73,2.35,3.93,3.31,6a5.61,5.61,0,0,0,2,2.29,4.64,4.64,0,0,1,1.23,7.08,27,27,0,0,0-3.69,5.8,4.6,4.6,0,0,0,.5,4c1,1.12,3,0,3.94-1.88.42-.81.93-1.58,1.32-2.4,1-2.14,1.89-4.3,2.89-6.43.44-.94,1.06-2.57,1.55-2.55a5.12,5.12,0,0,1,3.19,1.51c2.07,2.19,3.79,4.71,5.88,6.89C1148.9,32.66,1150.33,33,1151.5,33.59Zm4-11h.07a32.44,32.44,0,0,0-.36-5.85,5.14,5.14,0,0,0-2.33-3.17c-1.54-.73-2.55.51-3.1,2a4.25,4.25,0,0,1-1.27,1.42,3.11,3.11,0,0,0-.61,4.38,44.61,44.61,0,0,0,4.66,5.44,2.5,2.5,0,0,0,2.12.43c.4-.11.7-1.08.78-1.7A22.62,22.62,0,0,0,1155.5,22.6Zm-15.29,17.67,0,.17c2-.37,4-.64,6-1.15,1.64-.42,2-2.39.89-3.8-.78-1-1.51-2-2.23-3-1.7-2.48-3.68-2.64-5.48-.28a33.2,33.2,0,0,0-2.89,4.6c-.93,1.78.14,3.38,2.21,3.5C1139.21,40.3,1139.71,40.27,1140.21,40.27Zm-19-18.22c.43,2.15.73,4.31,1.33,6.38.32,1.09,1.19,2.07,2.62,1.23,2.67-1.58,4.23-6.82,2.7-9.49a25.35,25.35,0,0,0-3.27-4.38c-.91-1-1.87-1.09-2.19.64S1121.64,20.11,1121.22,22.05Zm13.61-18.61c-3.44,2.72-3.44,2.72-1.48,7.1a6.64,6.64,0,0,0,.26.79c.33.53.67,1.39,1.08,1.44a2.47,2.47,0,0,0,2-.67,18.9,18.9,0,0,0,2.3-4.66,2.84,2.84,0,0,0-.81-2.46A13.42,13.42,0,0,0,1134.83,3.44Z"/><path class="cls-2" d="M1203.58,25.3l-2.37,7.84c-.24.8-.48,1.6-.74,2.4-.89,2.76-3.54,3.66-5.58,5.23-1.25,1-2.47,1.94-3.71,2.91-.22.17-.44.44-.68.46-3.67.3-7.52,2.19-11,0-4.45-2.9-9.74-5.07-11.25-11.09-.58-2.28-1.9-4.36-2.74-6.58a18.49,18.49,0,0,1-.59-3.27c-.24-1.43-.5-2.87-.75-4.3,0-.14-.11-.31-.07-.42,1.23-2.75.77-5.91,3.13-8.52,2.64-2.91,6.13-4.68,8.71-7.54a1.33,1.33,0,0,1,.69-.48c3.86-.27,7.84-1.24,11.43.84a38,38,0,0,1,11.43,9.86C1202.26,16.11,1203.15,19.73,1203.58,25.3ZM1174.9,20l.07-.28h1.08c3.15,0,3.66-.43,3.53-3.62-.09-2.22-.61-4.43-.8-6.65s-.9-2.53-2.89-1.66c-3.61,1.58-5.19,4.88-6.8,8.06a3,3,0,0,0,.76,2.84A24.47,24.47,0,0,0,1174.9,20Zm6.44,13.7c0-.92,0-1.85,0-2.77,0-2.41-.62-3-3.11-3-1.72,0-3.44-.07-5.15,0-.78,0-2.14.34-2.19.67a5.12,5.12,0,0,0,.45,3.16,33.39,33.39,0,0,0,4.62,6,5.45,5.45,0,0,0,3.9,1.37c1.47-.13,1.56-1.77,1.49-3.11C1181.3,35.29,1181.34,34.5,1181.34,33.72Zm9.13-20.08c0,1,0,2,0,3a2.09,2.09,0,0,0,2.31,2.23c1.73-.07,3.89.8,4.8-1.6a2.21,2.21,0,0,0-.18-1.82c-1.5-1.95-3.11-3.81-4.76-5.64a1.69,1.69,0,0,0-1.47-.48c-.36.12-.63.85-.68,1.35A26.89,26.89,0,0,0,1190.47,13.64Zm2.71,23.53c1.17-1.36,2.18-2.65,3.3-3.83,1.93-2,1.73-3.52-1-4.3-2.35-.68-4.65-.5-5,1.59C1190.12,33,1190.71,35.07,1193.18,37.17Zm-6.69-24.78h0c0-1.64.06-3.28,0-4.91a5.77,5.77,0,0,0-.63-1.65c-.61.27-1.46.37-1.79.83a6.16,6.16,0,0,0-1,6.17,2.43,2.43,0,0,1,0,1.51c-.39,1.24.58,3.84,1.75,4.32s1.64,0,1.66-1.16C1186.51,15.8,1186.49,14.09,1186.49,12.39ZM1175.41,26l0-.32a24.36,24.36,0,0,0,3.42,0c.55-.07,1.43-.63,1.46-1a2.27,2.27,0,0,0-.86-1.81c-2.9-1.66-6.08-.79-9.15-.68-.47,0-1.17.94-1.25,1.51,0,.39.71,1.17,1.23,1.31C1172,25.46,1173.7,25.7,1175.41,26Zm18-4.08c-.21,0-.5-.09-.63,0-.78.66-1.87,1.23-2.21,2.09-.49,1.23.82,1.26,1.64,1.8,2.1,1.37,3.78-.53,5.67-.32.18,0,.63-.75.62-1.15s-.27-1.29-.6-1.39C1196.43,22.55,1194.9,22.3,1193.4,22Zm-6.05,11.91h0a21.74,21.74,0,0,0-.07-4c-.13-.67-1-1.26-1.61-1.74-.13-.1-1.07.4-1.07.63,0,3-.9,6.1.76,8.94a1.78,1.78,0,0,0,1.28.73c.22,0,.66-.7.69-1.11C1187.41,36.15,1187.35,35,1187.35,33.87Zm-.35-10-1.49-1.77c-.36.64-1,1.26-1,1.91s.65,1.12,1,1.68Z"/><path class="cls-2" d="M1022,26.09c-.41,2.33-.77,4.67-1.26,7a3.69,3.69,0,0,1-1.06,1.55c-1.86,1.89-3.67,3.84-5.67,5.58-4.59,4-9.86,4.68-15.77,3.41a34.37,34.37,0,0,1-8.53-3.55,20,20,0,0,1-7.34-6.69c-2.32-3.36-2.4-7.3-3.56-11-.71-2.25,0-4.32,0-6.41.1-3.06,2.22-5.6,4.32-7.67A69.47,69.47,0,0,1,991.37,2c.44-.32,1.24-.13,1.87-.23,1.45-.23,2.89-.5,4.34-.75.14,0,.3-.11.42-.07,2.51.9,5.42.19,7.67,2.33,1.55,1.47,3.84,2.16,5.42,3.61,3,2.75,6.23,5.47,8.4,8.82,1.87,2.91,3.06,6.55,2,10.36Zm-28,9.34a7,7,0,0,0,.21,2.47A3.63,3.63,0,0,0,996,39.29c.12.07.93-.63,1-1,.38-2.77.66-5.56.92-8.36a3,3,0,0,0-.26-1.65c-1.12-1.87.2-2.47,1.54-2.45,2.59.05,5.18.47,7.77.71a11,11,0,0,0,2.15,0c1.95-.23,3.91-.45,5.83-.83a3.75,3.75,0,0,0,1.81-1.1c-.33-.9-.79-2.26-1.48-2.45a101.89,101.89,0,0,0-11.66-2.67c-3.56-.57-7.19-.65-10.78-.94-.36,0-.72,0-1.07-.06-2.38-.26-4.76-.67-7.14-.71a3.08,3.08,0,0,0-2.35,1.38,4,4,0,0,0,3,5.72,50,50,0,0,0,6.9.83c2,.08,3,.81,2.83,2.81C994.71,30.8,994.36,33.08,994.06,35.43Zm3.27-30.7c-1.27.12-2.84-.17-3.77.45-2.93,2-5.66,4.25-8.38,6.51-.87.73-.87,1.78.48,2.06,3.15.64,6.31,1.3,9.5,1.67,2.74.32,5.53.1,8.27.38,2.92.3,5.8,1.05,8.72,1.32,2.11.2,2.88-1,1.65-2.72a22.28,22.28,0,0,0-4.67-4.68C1005.65,7.11,1002.12,4.42,997.33,4.73Zm9.22,24.8,0,.13c-.78,0-1.57,0-2.36,0a3.16,3.16,0,0,0-3,4.33,9.25,9.25,0,0,1,.61,2.84c.1,2.8,2.14,4.21,4.65,3a33.79,33.79,0,0,0,5.93-3.43,16.39,16.39,0,0,0,3.25-4.1c.19-.3-.37-1.59-.72-1.65C1012.15,30.16,1009.35,29.87,1006.55,29.53Zm-20-1c-.69.62-1.35,1-1.65,1.55a1.94,1.94,0,0,0,.17,1.54A7.77,7.77,0,0,0,986.69,34a6.61,6.61,0,0,0,2.28.79c.35-1.26,1.27-2.74.88-3.7S987.79,29.42,986.54,28.51Z"/><path class="cls-2" d="M1315,45.33c-3.25-.43-6.14-.69-9-1.25a7.38,7.38,0,0,1-2.86-1.73c-2.34-1.87-4.9-3.57-6.34-6.32s-3.14-5.24-3.88-8.07c-.92-3.52-2.81-7.25-.1-10.91a2.74,2.74,0,0,0,.39-1.61c-.2-3.95,1.8-6.65,4.89-8.79a7.69,7.69,0,0,0,.95-.86c4-3.89,7-4,12.19-1.81,4.22,1.82,8.47,3.6,12,6.48s7.1,6.11,7.57,11.23a15.45,15.45,0,0,0,.88,3.86c1.68,4.55-.89,8-2.85,11.66-.43.8-1,1.54-1.37,2.36-1.31,2.81-3.73,4-6.59,4.64C1318.89,44.64,1316.82,45,1315,45.33Zm-2.78-26a14.18,14.18,0,0,0-1.08,1.35c-1.55,2.52-2,2.73-4.68,1.34-2.41-1.27-4.52-3.23-7.6-2.67-1.15.21-2.54-.28-2.53,1.69,0,1.76.55,2.9,2.51,3a4,4,0,0,1,1.66.3,18.84,18.84,0,0,0,8.91,2.26c1.71,0,2.45.87,2.44,2.53,0,2.64-.06,5.27,0,7.91a5.75,5.75,0,0,0,.76,2.77c.39.61,1.33.86,2,1.28.32-.62.92-1.22.93-1.84.1-3.57,0-7.13.06-10.69,0-2.61,1.84-3.57,4.35-2.78a18.86,18.86,0,0,0,5.81.69c.62,0,1.43-1,1.78-1.77A1.9,1.9,0,0,0,1327,23c-2.47-.7-5.31-2.18-7.45-1.53C1316.45,22.38,1314.72,21.09,1312.26,19.34Zm-15.7,9.89a19.06,19.06,0,0,0,.77,1.83,19.06,19.06,0,0,0,7.87,8c1.75,1,2.68.34,2.73-1.62,0-1.14,0-2.27,0-3.41a5.62,5.62,0,0,0-5.72-6C1300.36,28,1298.17,27.09,1296.56,29.23Zm6.29-10.91.1-.29h.64c3.23,0,3.61-.52,2.75-3.5a6.3,6.3,0,0,1-.12-1.69c0-1.85,0-3.7,0-5.54,0-1.49-.77-2.1-2-1.13-2.68,2.09-5.16,4.33-6.33,7.75a2.38,2.38,0,0,0,1,3.14A17.45,17.45,0,0,0,1302.85,18.32Zm16.65,16.41c.18.72.46,2,.82,3.27.57,2,1.66,1.67,2.73.45a17.81,17.81,0,0,0,2.92-3.84,8.69,8.69,0,0,0,.72-4.16c0-.52-1.49-1.46-2.11-1.32a12.44,12.44,0,0,0-4.66,1.92C1319.35,31.47,1319.65,33.05,1319.5,34.73Zm-5.29-23-.25-.06c0-.64.24-1.43,0-1.89a30.87,30.87,0,0,0-2.52-3.11c-.69.94-1.41,1.86-2,2.84a1.84,1.84,0,0,0,0,1c.28,1.92.52,3.86.89,5.77a6.51,6.51,0,0,0,.87,1.67c.62-.41,1.58-.69,1.8-1.25A46.91,46.91,0,0,0,1314.21,11.68Zm4.55-1.32c-.69.64-1.46,1-1.61,1.56a4.68,4.68,0,0,0,4.36,6.12c.48,0,1,.22,1.45.28s1.28.13,1.92.19a13.41,13.41,0,0,0-.36-1.91,6.53,6.53,0,0,0-1.17-2.46C1322,12.85,1320.49,11.77,1318.76,10.36Z"/><path class="cls-2" d="M1207.88,18.11c.28-2.3.53-5.45,1.12-8.54.19-1,1.24-1.84,2-2.65a29.86,29.86,0,0,1,4.52-4.34c1.31-.9,3.21-1.76,4.65-1.51a31.17,31.17,0,0,1,7.18,2.67,49.07,49.07,0,0,1,6.11,3.17c5.2,3.29,9.85,7.17,12.56,12.87a5.23,5.23,0,0,1,.39,2c0,2.35.13,4.71,0,7.05a15.24,15.24,0,0,1-1.07,3.27,35.5,35.5,0,0,1-1.08,3.55c-1.71,3.9-5.34,5.67-8.8,7.6a11.45,11.45,0,0,1-9.37.64c-6-2.27-11.71-5.34-14.34-11.89-1-2.38-2.58-4.52-3.34-6.94C1207.78,23.2,1208.05,21,1207.88,18.11Zm3.17-.53c.4,1.85.47,3.47,1.15,4.79.31.58,1.82.7,2.8.72a1.93,1.93,0,0,0,1.54-1c.46-1.75.46-3.63,1-5.33,1.25-3.77,2.16-6.83,7.2-6.43,4.27.33,7.74,2.15,9.72,6.21,1.06,2.18,2.26,4.3,3.33,6.48.76,1.55,2.13,1.07,3.14.76a2.51,2.51,0,0,0,1.35-2c-.64-2.38-1.13-4.88-3.45-6.49-1.28-.88-2.19-2.25-3.39-3.25a61.64,61.64,0,0,0-4.93-3.71A18.62,18.62,0,0,0,1227.77,7c-2.36-1.08-4.73-2.78-7.37-1.95-2.34.73-4.89,1.71-5.71,4.56-.1.34-.2.8-.45.94C1211.16,12.17,1212.44,15.58,1211.05,17.58Zm17.65,22.8c2.61.2,5.93-2.05,9.34-4,1.35-.76,1.33-2,0-2.92a5.36,5.36,0,0,0-2.67-1.2c-5.92-.05-11.84-.28-17.77-.07-1.18,0-1.73.89-1,1.68C1219.37,37.15,1222.31,40.26,1228.7,40.38Zm-7.3-20.08h.06a7.5,7.5,0,0,1,0,1.06c-.27,2,.47,2.81,2.6,2.71,1.35-.06,2.73.63,4.09.64s3.17,0,4.17-.72c1.38-1.05.86-2.76,0-4.21a24.18,24.18,0,0,1-1.49-3c-1.22-2.86-3.74-2.49-6.12-2.52-2.12,0-2.38,1.83-3,3.12A8.49,8.49,0,0,0,1221.4,20.3Zm18.17,9.62,0-.73a11.88,11.88,0,0,0-1.29-.38c-1.86-.33-3.74-.61-5.6-1-2.11-.42-4.2-1-6.32-1.36a11.23,11.23,0,0,0-3.11-.18c-1,.1-1.88.72-2.81.72-1.16,0-2.31-.51-3.48-.58a8.93,8.93,0,0,0-2.29.45c.41.53.72,1.36,1.26,1.53a28,28,0,0,0,6,1.54c3,.26,6.33-.71,8.94.32C1234.26,31.56,1236.69,29.32,1239.57,29.92Z"/><path class="cls-2" d="M1113.52,24.5c-.72,2.74-1.78,5.46-2,8.25-.22,2.3-1.57,3.84-2.57,5.64a6.11,6.11,0,0,1-1.82,1.83c-1.13.82-2.39,1.45-3.52,2.26-3.1,2.23-6.73,2.2-10.07,1.53-2.47-.5-4.7-2.34-6.94-3.73-4.11-2.53-6.78-6.37-8.85-10.54a22.67,22.67,0,0,1-2.46-9.24A25.07,25.07,0,0,1,1077.33,10c.49-1.25,1.83-2.18,2.83-3.21,1.21-1.23,2.52-2.36,3.71-3.61a6.64,6.64,0,0,1,6-2.1c2.81.52,5.83,1,8.07,3.22.83.84,2,1.32,2.91,2.09q3.64,3.11,7.2,6.32c3.45,3.13,5.54,6.84,4.88,11.7ZM1104,20.63a8.94,8.94,0,0,0-1.12-1.68c-2.94-2.79-5.89-5.56-8.91-8.26-2.4-2.14-2.57-2.2-4.72.27-2,2.28-3.7,4.78-5.44,7.24-1,1.44-.58,2.82.42,4.17q4.11,5.6,8.12,11.25c1.26,1.77,3.13,1.72,4.14-.2,2-3.92,3.72-8.06,6.94-11.27C1103.73,21.84,1103.77,21.26,1104,20.63Zm-13.06,18.92c1.91-1.73,2-2,1.14-3.09-1.72-2-3.51-4-5.23-6.08a44.32,44.32,0,0,1-4.35-5.48c-.74-1.26-1.59-1.56-2.5-1-.45.3-.48,1.64-.29,2.41a15.3,15.3,0,0,0,1.5,3.87c1.07,1.88,2,3.95,3.59,5.39C1086.58,37.25,1088.93,38.31,1090.93,39.55Zm8.46-2.33c1.74,2,3.24,1.8,4.45-.38a26.52,26.52,0,0,1,2.71-4c1.67-2.06,2.21-5.9.87-8.23C1103.47,28.08,1101.19,32.5,1099.39,37.22Zm6.73-21.33c0-.13.05-.3,0-.4a4.76,4.76,0,0,0-.65-.83c-2.35-2.36-4.75-4.68-7.06-7.07-1.15-1.19-1.86-.89-2.5.4C1099.9,13.46,1103.81,16.48,1106.12,15.89Zm-24.6-1.72c1.21-1.26,2.42-2.43,3.51-3.7a2.92,2.92,0,0,0,.48-1.66,1.74,1.74,0,0,0-1.23-.4C1082.13,8.94,1080.69,12.12,1081.52,14.17Z"/><path class="cls-2" d="M1422.11,19.92c.4-2.62.67-5.27,1.23-7.87.7-3.26,3.12-5.41,5.49-7.54A16.91,16.91,0,0,1,1430.4,3a5,5,0,0,1,2.31-1.19A23.11,23.11,0,0,1,1443.27,4c4.57,2,8,5.12,11.53,8.4,2.39,2.26,3.25,5.17,3.51,8.33.06.76-.07,1.77.36,2.24,1.88,2.09.75,4.33.25,6.33a68.26,68.26,0,0,1-3.3,9c-.25.6-1.15.92-1.72,1.41-5.41,4.55-11.34,4.76-17.54,2-2.34-1-5-2-6.71-3.72a28.21,28.21,0,0,1-7-11.35c-.57-2-.09-4.38-.09-6.59Zm21.66-3.4.63-.08c-.42-2.84-.76-5.69-1.31-8.5-.11-.54-1.07-.91-1.64-1.36-.41.54-1.14,1.07-1.18,1.63A37.85,37.85,0,0,0,1442,22.54a2.74,2.74,0,0,1-3.12,3.68,75.16,75.16,0,0,0-7.77-.78,6.91,6.91,0,0,0-3.16,1,2.06,2.06,0,0,0,.06,1.7c2.58,1.26,5.2,2.46,8.24,1.91a6.88,6.88,0,0,1,1.9.16,41.67,41.67,0,0,0,5.64.59,53.16,53.16,0,0,0,7.55-.83,5.71,5.71,0,0,0,2.8-1.44,2.15,2.15,0,0,0-.34-2c-1-.52-1.87-1.41-3.48-.64-2.4,1.13-4.75,1.37-5.7-2C1444,21.49,1444,19,1443.77,16.52Zm-6.64,1.31c-.29-2.74-.5-5.68-.93-8.59-.4-2.63-2.9-3.57-4.82-2-3.86,3.2-6.17,7.08-5.83,12.29.16,2.62,1.08,3.65,3.77,3.59.91,0,1.81-.11,2.71-.19C1436.51,22.53,1437.13,21.93,1437.13,17.83Zm14.68,16.34a7.85,7.85,0,0,0-2.3-1c-5.44-.36-10.88-.66-16.32-.86a7.38,7.38,0,0,0-2.38.81c.33.88.4,2.13,1,2.56a51.68,51.68,0,0,0,4.83,2.4C1441.94,40.84,1448.25,40,1451.81,34.17Zm-.94-11.86c3.23,0,3.79-1.12,3-4a13.54,13.54,0,0,0-3.72-6.22,9.85,9.85,0,0,0-2.06-1.23c-.32.69-1,1.4-.91,2.06a41.47,41.47,0,0,0,1,7C1448.46,21.2,1449,22.87,1450.87,22.31Z"/><path class="cls-2" d="M1026.84,22.83c.45-3,.68-5.69,1.3-8.26a8.9,8.9,0,0,1,2.08-3.38,99.6,99.6,0,0,1,7.57-8.32A8.48,8.48,0,0,1,1042.53,1c3.46-.35,7-.27,10.12,1.62,2.47,1.48,5.22,2.67,7.32,4.57a30.69,30.69,0,0,1,7.72,10,21.87,21.87,0,0,1,1.13,3.77c1.09,4.41,2.08,9,0,13.21-1.19,2.45-3.38,4.49-5.38,6.45a17.13,17.13,0,0,1-4.57,3,12.36,12.36,0,0,1-4.56,1.42c-4.23.2-8.55.66-12.49-1.6-4.86-2.78-9.38-5.9-11.79-11.25-.49-1.07-1.54-1.93-1.87-3C1027.53,27,1027.23,24.74,1026.84,22.83Zm3-.37c.52,1.61.8,2.84,1.3,4,.78,1.77,1.68,3.49,2.59,5.2,3.1,5.85,7.74,9.38,14.62,9.53.67,0,1.34.53,2,.52,1,0,2.23,0,2.85-.56a2.78,2.78,0,0,0,.35-2.63,102.63,102.63,0,0,0-6.29-10.55c-3.32-4.64-7-9-10.54-13.5-1.06-1.36-2.65-1.5-3.39-.06C1032,17,1030.93,19.85,1029.82,22.46ZM1065.06,27l.47-.1c-.64-2.85-.94-5.82-2-8.51a25.45,25.45,0,0,0-8.62-11.13c-2.71-2.06-6-2.81-9.23-3.24-1.45-.19-2.63.61-2.35,2.24a9.37,9.37,0,0,0,1.4,3.47c1,1.58,2.38,3,3.49,4.49,1.8,2.5,3.47,5.08,5.28,7.57,2.3,3.18,4.62,6.35,7.08,9.4a3.32,3.32,0,0,0,2.62,1.2c.74-.15,1.5-1.33,1.77-2.2A10.93,10.93,0,0,0,1065.06,27Zm-4.15,9.6a6.69,6.69,0,0,0-.38-1.47c-1.34-2-2.65-4-4.1-5.85-1-1.35-2.35-2.47-3.38-3.82-2-2.55-3.78-5.2-5.7-7.78-.59-.79-1.37-1.44-2-2.22-1.6-2-3.08-4.17-4.76-6.14-.44-.51-1.43-.57-2.16-.83,0,.85-.36,1.89,0,2.53a82.83,82.83,0,0,0,4.63,7.23c2.48,3.48,5.32,6.73,7.56,10.35,1.93,3.12,3.07,6.74,6.29,8.93.66.45,1.65,1,2.23.83C1059.93,38.1,1060.44,37.12,1060.91,36.61Z"/><path class="cls-2" d="M1399.2,44.66c-2.85-.73-6.07-1-8.72-2.4-2.39-1.24-4.3-3.53-6.16-5.6-1.63-1.81-3.39-3.76-4.22-6-1.45-3.9-3.34-8-2.29-12.22.88-3.52,1.54-7.29,4.6-10A22.33,22.33,0,0,0,1386,4.09c1.47-2.16,3.59-2.85,6-3.2,3.74-.53,6.5,1.09,9.14,3.46s5.61,4.09,8,6.51c1.92,1.93,4.4,3.65,4.43,7,0,1.53.84,3,1.31,4.58,0,.14.21.31.17.38-1.36,2.44,1,4.85,0,7.32s-1.36,4.86-2.46,7.07c-1.51,3-4.61,4.48-7.43,6C1403.55,44.06,1401.45,44.14,1399.2,44.66Zm-3-13.8c2.08,0,4.16,0,6.23,0,2.52-.06,3.48-1.62,2.24-3.82s-2.86-4.48-4.19-6.77c-1.63-2.82-3.14-5.72-4.72-8.56-.33-.59-.77-1.12-1.15-1.67-.6.62-1.49,1.15-1.74,1.89-1.69,5.06-3.18,10.2-4.89,15.26-.75,2.22,0,3.62,2.43,3.67C1392.39,30.9,1394.32,30.86,1396.25,30.86Zm2,9.45c3.81-.09,7.23-1.09,9.8-4.12.66-.77,1.24-1.82-.15-2.11a74.19,74.19,0,0,0-7.73-1c-1-.1-1.93.07-2.89,0-1.36-.14-2.7-.45-4.06-.62a6.14,6.14,0,0,0-2,0c-1.39.29-3.17.32-4,1.2-1.09,1.16,0,2.58,1.23,3.33C1391.35,38.88,1394.47,40.49,1398.21,40.31Zm13.29-15.07a32.1,32.1,0,0,1-1-5.46,7.06,7.06,0,0,0-2.56-5.78c-2.47-2-5-3.9-7.56-5.8a7.37,7.37,0,0,0-1.68-.67,7.43,7.43,0,0,0-.63,1.86,3.36,3.36,0,0,0,.45,1.79c2.18,3.91,4.37,7.81,6.66,11.66a18.57,18.57,0,0,0,2.8,3.67,11.76,11.76,0,0,0,2.74,1.61C1411,27.15,1411.25,26.17,1411.5,25.24ZM1390.68,8.15c-.18-.27-.56-1.39-1-1.43-.66,0-1.42.63-2.06,1.1a12.7,12.7,0,0,0-1.14,1.27c-4.14,4.08-6.37,8.93-5.6,14.78.16,1.17,1.2,2.26,2,3.26a2,2,0,0,0,1.62-.51c2.09-5.67,4.08-11.38,6.07-17.08A9,9,0,0,0,1390.68,8.15Z"/><path class="cls-2" d="M1357.83,44.3c-4.86-.16-8.38-1.94-11.95-3.8-3.38-1.75-5-4.58-6.11-8-.47-1.42-1.31-2.73-1.82-4.14-1.4-3.93-2.57-7.89-.82-12a3.82,3.82,0,0,0,.08-1.69c-.39-4.27,1.6-7.66,4.25-10.66,2.26-2.56,6.84-3.14,10-1.9,3.83,1.5,7.65,2.89,10.51,6.08a4.53,4.53,0,0,0,2.43,1.21c3.49.62,4.45,3.69,5.93,6.11,1.08,1.78,1.47,4,2.29,5.92,1.51,3.61,1,7.2,0,10.76-.59,2.07-1.46,4.06-2.21,6.08-.1.26-.17.6-.37.74-2.07,1.44-4,3.18-6.3,4.16C1361.74,44,1359.37,44,1357.83,44.3Zm-8.89-5.76a12.27,12.27,0,0,0,1.15-3.1c.34-5-.22-10.11.78-15.19.69-3.5.12-7.23.14-10.86,0-1.36.22-3.06-1.38-3.44-1.79-.42-3.73-.83-5.48.65-3.39,2.88-3,7.07-3.75,10.79a25.47,25.47,0,0,0,0,7.45c.28,2.65.32,5.49,2.69,7.45a1.56,1.56,0,0,1,.59.85C1344,36.12,1346.34,37.21,1348.94,38.54Zm10.21-4.5h.11a12.28,12.28,0,0,1,0,1.92c-.31,2,.71,3.72,2.35,4a4.64,4.64,0,0,0,3.81-2c1.9-3.4,4.12-6.83,3.67-11-.18-1.66-.61-3.29-.83-4.94a13.92,13.92,0,0,0-5.2-9.73c-.39-.3-1.77-.13-1.85.11a16.39,16.39,0,0,0-.92,4.25c-.08,1.56.3,3,0,4.73C1359.54,25.52,1359.48,29.8,1359.15,34ZM1357,21.4c0-3.63.06-7.26,0-10.89,0-.73-.66-1.45-1-2.17-.62.74-1.7,1.45-1.78,2.25q-.67,6.72-.92,13.47c-.14,4.06-.09,8.12,0,12.18a9.79,9.79,0,0,0,.9,3.19c.13.34.88.8,1.06.7a1.85,1.85,0,0,0,.89-1.19c.35-3.77.67-7.56.89-11.34C1357.13,25.54,1357,23.47,1357,21.4Z"/><path class="cls-2" d="M1270.13,45.42c-2.43-.4-4.86-.74-7.26-1.24a5.32,5.32,0,0,1-2.19-1.12,22.37,22.37,0,0,1-7.82-11.55c-.67-2.48-1.27-5-1.74-7.5a35.77,35.77,0,0,1-.82-6.65c0-2.14,0-4.6,1-6.35a25.37,25.37,0,0,1,5.79-6.58A12.1,12.1,0,0,1,1262.75,2a7.55,7.55,0,0,1,4.5,1.23,110.57,110.57,0,0,1,9.86,6.45,20.51,20.51,0,0,1,3.81,4.22,32.39,32.39,0,0,1,3.64,5.63,29.57,29.57,0,0,1,1.49,5.6c.31,1.29.56,2.59.86,3.87.76,3.24-1,5.83-2.32,8.48-.92,1.87-1.37,4-3.42,5.35-2.24,1.52-4.65,1.81-7.12,2.16a27.59,27.59,0,0,1-3.86,0ZM1283,28.62a17.06,17.06,0,0,0-.28-3.6c-1-3.33-2.14-6.62-3.31-9.89a5.43,5.43,0,0,0-1.31-1.6c-.73-.78-1.48-1.55-2.24-2.3a12.56,12.56,0,0,0-2.2-2,34.7,34.7,0,0,0-5-2.49,10.28,10.28,0,0,0-4.28-.89c-4.1.38-6.44,3.28-8.68,6.36-1.91,2.62-1.39,5.52-1.53,8.39A24.59,24.59,0,0,0,1256,31.94c2.09,4.72,4.9,8.63,10.6,9.32a13.49,13.49,0,0,0,2.16.51,24.46,24.46,0,0,0,3.48-.64,49.6,49.6,0,0,0,5.33-1.2,4.54,4.54,0,0,0,2.55-1.76C1281.65,35.19,1283.38,32.2,1283,28.62Z"/><path class="cls-2" d="M1281.28,28.24c-.83,1-1.63,2.05-2.57,3-.63.63-1.55,1-2.19,1.59-2.33,2.23-4.93,3.17-8.13,2.08-.64-.22-1.46.06-2.12-.13a15.54,15.54,0,0,1-3.18-1.31,14.69,14.69,0,0,1-3.08-2.19c-3.6-3.57-5.36-7.82-4.6-13,.42-2.82,3.79-6,6.66-6.28a13.7,13.7,0,0,1,11,3.45,24,24,0,0,1,6.43,7.59A42.51,42.51,0,0,1,1281.28,28.24ZM1265.4,15.11c-4.71,0-6.11,1.32-6,5.76a13.76,13.76,0,0,0,.86,4.28c.88,2.39,2.36,4.6,4.78,5.46a24.21,24.21,0,0,0,7.07,1.06c3.41.14,5.75-4,4.4-7.17a22,22,0,0,0-5.23-6.87C1269.57,15.94,1267.71,14.82,1265.4,15.11Z"/></g></g></g></svg>