<svg xmlns="http://www.w3.org/2000/svg" viewBox="0 0 45.17 225.06"><defs><style>.cls-1{fill:#fff;}</style></defs><g id="Layer_2" data-name="Layer 2"><g id="Layer_1-2" data-name="Layer 1"><path class="cls-1" d="M22,182c-3.62-.65-7.5-.85-11-2.14-2.24-.83-3.8-3.4-5.86-4.93C3,173.26,2.68,170.81,2,168.51a24,24,0,0,1-1-4.71c-.18-2,.06-4.09-.08-6.12C.55,152,5,149.44,8.22,146.13a14.45,14.45,0,0,1,3.77-3,27.17,27.17,0,0,1,5.2-1.44c.41-.1,1,.05,1.23-.19,2.31-2.8,5.77-1,8.57-2.24,2.27-1,8.36,2.78,9.61,5.08a7.46,7.46,0,0,0,1.19,1.46,15.32,15.32,0,0,0,2.42,2.41c2.94,1.94,3.13,5.37,4.46,8.16a4.79,4.79,0,0,1,.38,3.1c-1.11,3.66-.88,7.87-4.13,10.7a4.8,4.8,0,0,0-.94,1.39c-.8,1.47-1.26,3.11-3.19,3.75-.7.23-1,1.48-1.67,2.07-1.1,1-2.23,2.17-3.56,2.56C28.5,180.82,25.31,181.29,22,182Zm-10.45-9,.65.42c4-2,8.05-3.86,10.32-8.15.7-1.32,3-2.17,3.87-1.49,1.8,1.47,3.58,3,5.34,4.49,1,.89,4.44,1.39,5.63.75a1.72,1.72,0,0,0,.31-3.1c-.43-.35-1-.48-1.43-.86-2.66-2.63-5.54-4.8-9.27-5.74-.65-.16-1.37-1.46-1.43-2.27-.13-2,1.34-2.72,3.06-3.36a39.25,39.25,0,0,0,6.67-3.27c.51-.3.58-1.65.48-2.46,0-.26-1.31-.43-2-.5-2.72-.27-3.92,2.35-6,3.31a5.61,5.61,0,0,0-2.29,2A4.64,4.64,0,0,1,18.36,154a27.21,27.21,0,0,0-5.81-3.7,4.59,4.59,0,0,0-4,.5c-1.12,1,0,3,1.87,3.95.82.42,1.58.93,2.41,1.31,2.13,1,4.3,1.89,6.43,2.89.94.44,2.57,1.07,2.55,1.55a5.17,5.17,0,0,1-1.51,3.2c-2.19,2.07-4.71,3.79-6.89,5.87C12.51,170.38,12.17,171.81,11.58,173Zm11,4V177a30.56,30.56,0,0,0,5.84-.36,5.1,5.1,0,0,0,3.18-2.33c.73-1.53-.51-2.54-2-3.1A4.28,4.28,0,0,1,28.15,170a3.1,3.1,0,0,0-4.38-.61A44.61,44.61,0,0,0,18.33,174a2.5,2.5,0,0,0-.43,2.12c.11.4,1.08.7,1.7.78A22.6,22.6,0,0,0,22.57,177ZM4.9,161.69l-.17,0c.37,2,.64,4,1.15,6,.42,1.64,2.39,2,3.8.89,1-.78,2-1.52,3-2.23,2.47-1.7,2.64-3.68.28-5.48A32.35,32.35,0,0,0,8.4,158c-1.78-.93-3.38.15-3.5,2.22C4.87,160.69,4.9,161.19,4.9,161.69Zm18.22-19c-2.15.43-4.31.73-6.38,1.33-1.09.32-2.07,1.19-1.23,2.62,1.57,2.66,6.82,4.23,9.49,2.7a25.74,25.74,0,0,0,4.38-3.27c1-.91,1.09-1.87-.64-2.19S25.06,143.11,23.12,142.7Zm18.61,13.6c-2.72-3.43-2.72-3.43-7.1-1.47a5.22,5.22,0,0,0-.79.26c-.53.33-1.39.66-1.44,1.08a2.48,2.48,0,0,0,.67,2,18.9,18.9,0,0,0,4.66,2.3,2.87,2.87,0,0,0,2.46-.81A13.5,13.5,0,0,0,41.73,156.3Z"/><path class="cls-1" d="M19.87,225.06,12,222.69c-.8-.24-1.6-.48-2.4-.74-2.76-.89-3.67-3.55-5.23-5.58-1-1.25-1.94-2.47-2.91-3.71-.17-.22-.44-.45-.46-.68-.3-3.67-2.19-7.52.05-11,2.9-4.45,5.07-9.73,11.09-11.25,2.28-.57,4.36-1.9,6.58-2.73a18.33,18.33,0,0,1,3.27-.59l4.3-.76c.14,0,.31-.11.41-.06,2.76,1.22,5.92.77,8.53,3.13,2.91,2.64,4.68,6.13,7.54,8.71a1.33,1.33,0,0,1,.48.69c.27,3.85,1.24,7.84-.84,11.43A38,38,0,0,1,32.58,221C29.06,223.73,25.44,224.62,19.87,225.06Zm5.28-28.68.28.07v1.08c0,3.14.43,3.66,3.62,3.53,2.22-.1,4.42-.61,6.65-.81s2.53-.89,1.66-2.89c-1.58-3.6-4.88-5.18-8.06-6.79a3,3,0,0,0-2.84.76A24.47,24.47,0,0,0,25.15,196.38Zm-13.7,6.44c.92,0,1.85,0,2.77,0,2.41,0,3-.61,3-3.1,0-1.72.07-3.44,0-5.15,0-.78-.34-2.14-.67-2.19a5,5,0,0,0-3.16.45,33.8,33.8,0,0,0-6,4.61A5.48,5.48,0,0,0,6,201.34c.13,1.47,1.77,1.56,3.11,1.48C9.88,202.78,10.67,202.82,11.45,202.82Zm20.08,9.12c-1,0-2,0-3,0a2.1,2.1,0,0,0-2.23,2.31c.07,1.74-.8,3.89,1.59,4.8a2.19,2.19,0,0,0,1.83-.18c1.94-1.5,3.81-3.1,5.64-4.75a1.69,1.69,0,0,0,.48-1.47c-.13-.36-.86-.63-1.35-.69A29.56,29.56,0,0,0,31.53,211.94ZM8,214.66c1.36,1.17,2.65,2.18,3.83,3.29,2,1.94,3.52,1.74,4.3-.94.68-2.36.5-4.65-1.59-5C12.2,211.6,10.1,212.19,8,214.66ZM32.78,208h0c1.64,0,3.27.06,4.9,0a5.72,5.72,0,0,0,1.66-.63c-.27-.62-.37-1.47-.83-1.79a6.12,6.12,0,0,0-6.17-1,2.44,2.44,0,0,1-1.51,0c-1.24-.39-3.84.58-4.32,1.75s0,1.65,1.15,1.66C29.37,208,31.08,208,32.78,208ZM19.13,196.88l.32.06a25.81,25.81,0,0,0,0,3.41c.08.56.64,1.44,1,1.47a2.27,2.27,0,0,0,1.81-.86c1.66-2.9.79-6.08.67-9.15,0-.47-.93-1.17-1.5-1.25-.39-.06-1.17.7-1.31,1.23C19.71,193.45,19.47,195.18,19.13,196.88Zm4.08,18c0-.21.09-.51,0-.63-.66-.79-1.23-1.87-2.09-2.21-1.23-.5-1.26.82-1.8,1.63-1.37,2.11.53,3.79.32,5.68,0,.17.75.63,1.15.62s1.29-.27,1.39-.6C22.62,217.91,22.87,216.38,23.21,214.88ZM11.3,208.82h0a21.74,21.74,0,0,0,4-.07c.67-.13,1.26-1,1.74-1.61.1-.13-.4-1.07-.63-1.07-3,0-6.11-.91-8.95.76a1.8,1.8,0,0,0-.72,1.28c0,.22.7.65,1.11.69C9,208.89,10.16,208.82,11.3,208.82Zm10.05-.34L23.12,207c-.64-.36-1.26-1-1.91-1s-1.12.65-1.68,1Z"/><path class="cls-1" d="M19.08,43.5c-2.33-.4-4.68-.76-7-1.25a3.63,3.63,0,0,1-1.55-1.07C8.65,39.33,6.7,37.52,5,35.52,1,30.92.28,25.66,1.55,19.75A34.6,34.6,0,0,1,5.1,11.21a20,20,0,0,1,6.69-7.33c3.36-2.33,7.3-2.4,11-3.56,2.25-.71,4.32,0,6.4,0,3.07.09,5.61,2.22,7.68,4.32a70.2,70.2,0,0,1,6.34,8.15c.32.45.13,1.25.23,1.88.23,1.45.5,2.89.75,4.34,0,.14.11.3.07.41-.9,2.51-.19,5.43-2.33,7.68-1.47,1.55-2.17,3.84-3.61,5.42-2.75,3-5.47,6.23-8.82,8.39-2.91,1.88-6.55,3.07-10.36,2Zm-9.35-28a7.46,7.46,0,0,0-2.46.21,3.68,3.68,0,0,0-1.39,1.71c-.07.13.62.93,1,1,2.77.37,5.56.66,8.35.91a2.93,2.93,0,0,0,1.65-.25c1.88-1.12,2.48.2,2.46,1.53-.05,2.6-.47,5.19-.71,7.78a10.93,10.93,0,0,0,0,2.14c.23,1.95.45,3.91.83,5.83.14.69.95,1.87,1.1,1.81.9-.32,2.26-.78,2.45-1.48A103.06,103.06,0,0,0,25.7,25.05c.57-3.55.65-7.18.94-10.77,0-.36,0-.72.06-1.08.26-2.37.66-4.75.71-7.13A3.11,3.11,0,0,0,26,3.71a4,4,0,0,0-5.72,3,50.31,50.31,0,0,0-.83,6.91c-.08,2-.81,3-2.81,2.83C14.37,16.19,12.09,15.84,9.73,15.53Zm30.71,3.28C40.32,17.53,40.61,16,40,15a105.24,105.24,0,0,0-6.52-8.39c-.72-.87-1.77-.86-2,.49-.65,3.15-1.3,6.31-1.67,9.5-.32,2.73-.1,5.53-.38,8.27-.3,2.92-1.05,5.79-1.32,8.71-.2,2.12,1,2.88,2.72,1.65a22,22,0,0,0,4.68-4.66C38.06,27.13,40.75,23.6,40.44,18.81ZM15.64,28l-.13,0c0-.79,0-1.57,0-2.36a3.16,3.16,0,0,0-4.34-3,9.42,9.42,0,0,1-2.83.61c-2.81.1-4.21,2.14-3,4.65A33.7,33.7,0,0,0,8.8,33.87a16,16,0,0,0,4.1,3.25c.3.2,1.59-.37,1.65-.71C15,33.63,15.3,30.82,15.64,28Zm1-20A7.7,7.7,0,0,0,15.1,6.36a2,2,0,0,0-1.53.18,7.8,7.8,0,0,0-2.41,1.62,6.67,6.67,0,0,0-.79,2.29c1.25.34,2.74,1.27,3.7.88S15.75,9.27,16.66,8Z"/><path class="cls-1" d="M20.67,135c-2.75-.72-5.46-1.78-8.25-2.05-2.3-.23-3.84-1.57-5.64-2.57A6.11,6.11,0,0,1,5,128.56c-.82-1.13-1.45-2.39-2.26-3.52C.46,121.94.49,118.31,1.16,115c.5-2.46,2.34-4.69,3.73-6.94,2.53-4.1,6.37-6.77,10.54-8.84a22.84,22.84,0,0,1,9.24-2.47A25.26,25.26,0,0,1,35.21,98.8c1.25.5,2.18,1.83,3.21,2.84,1.22,1.21,2.36,2.52,3.61,3.71a6.63,6.63,0,0,1,2.1,6c-.52,2.81-1,5.82-3.23,8.07-.83.83-1.31,2-2.08,2.91q-3.1,3.64-6.32,7.2c-3.13,3.45-6.85,5.54-11.7,4.88Zm3.87-9.53a8.94,8.94,0,0,0,1.68-1.12c2.78-2.94,5.56-5.89,8.26-8.92,2.14-2.4,2.2-2.56-.27-4.71-2.28-2-4.78-3.7-7.24-5.44-1.44-1-2.82-.58-4.17.41q-5.6,4.11-11.25,8.13c-1.77,1.26-1.72,3.12.2,4.13,3.91,2.06,8.06,3.73,11.27,7C23.33,125.21,23.91,125.24,24.54,125.47ZM5.61,112.4c1.74,1.92,2,2,3.1,1.14,2-1.71,4-3.5,6.08-5.22A42.7,42.7,0,0,1,20.27,104c1.26-.75,1.56-1.6,1-2.5-.3-.46-1.64-.48-2.41-.29a15.16,15.16,0,0,0-3.87,1.5c-1.89,1.06-4,2-5.39,3.59C7.91,108.05,6.86,110.41,5.61,112.4ZM8,120.87c-2,1.74-1.81,3.24.38,4.45a26.52,26.52,0,0,1,4,2.71c2.06,1.67,5.9,2.21,8.23.86C17.09,125,12.67,122.67,8,120.87Zm21.33,6.72c.13,0,.3.06.4,0a4.28,4.28,0,0,0,.83-.64c2.36-2.35,4.67-4.75,7.07-7.06,1.19-1.16.89-1.87-.41-2.5C31.71,121.38,28.69,125.29,29.28,127.59ZM31,103c1.26,1.21,2.43,2.42,3.7,3.5a2.84,2.84,0,0,0,1.66.48c.13,0,.49-.85.4-1.22C36.23,103.61,33.05,102.17,31,103Z"/><path class="cls-1" d="M22.34,48.31c3,.46,5.69.69,8.26,1.31A9,9,0,0,1,34,51.69a101.37,101.37,0,0,1,8.32,7.57A8.54,8.54,0,0,1,44.17,64c.35,3.46.27,7-1.62,10.12-1.48,2.47-2.67,5.21-4.57,7.32A30.83,30.83,0,0,1,28,89.17a21,21,0,0,1-3.77,1.12c-4.41,1.09-9,2.09-13.21,0C8.6,89.12,6.56,86.93,4.6,84.93a17.13,17.13,0,0,1-3-4.57A12.36,12.36,0,0,1,.21,75.8C0,71.57-.45,67.25,1.8,63.31c2.79-4.86,5.91-9.39,11.26-11.8,1.07-.48,1.93-1.53,3-1.86C18.21,49,20.43,48.7,22.34,48.31Zm.37,3c-1.62.52-2.84.8-4,1.3-1.77.78-3.49,1.68-5.2,2.59C7.69,58.29,4.16,62.92,4,69.81c0,.67-.53,1.34-.52,2,0,1,0,2.23.56,2.84A2.78,2.78,0,0,0,6.68,75a102.55,102.55,0,0,0,10.55-6.28c4.64-3.32,9-7,13.5-10.54,1.35-1.07,1.5-2.65.06-3.39C28.13,53.44,25.32,52.41,22.71,51.3ZM18.16,86.54l.1.46c2.84-.63,5.82-.93,8.51-2A25.52,25.52,0,0,0,37.9,76.41c2.06-2.71,2.81-6,3.24-9.23.19-1.45-.61-2.63-2.24-2.36a9.56,9.56,0,0,0-3.47,1.41c-1.58,1-3,2.37-4.49,3.48-2.5,1.8-5.08,3.48-7.57,5.28C20.19,77.3,17,79.61,14,82.08a3.35,3.35,0,0,0-1.21,2.62c.16.74,1.34,1.5,2.21,1.77A10.93,10.93,0,0,0,18.16,86.54Zm-9.6-4.16A5.69,5.69,0,0,0,10,82c2-1.33,4-2.64,5.85-4.09,1.34-1,2.47-2.35,3.82-3.39,2.55-2,5.2-3.77,7.78-5.69.79-.59,1.44-1.37,2.22-2,2-1.6,4.17-3.08,6.14-4.76.51-.44.57-1.43.83-2.16-.85,0-1.89-.36-2.53,0a85.36,85.36,0,0,0-7.23,4.64c-3.49,2.48-6.73,5.32-10.35,7.56-3.12,1.93-6.74,3.07-8.93,6.29-.45.66-1,1.65-.83,2.23C7.06,81.41,8.05,81.92,8.56,82.38Z"/></g></g></svg>