<svg xmlns="http://www.w3.org/2000/svg" viewBox="0 0 472.47 38.33"><defs><style>.cls-1{fill:#000c85;}</style></defs><g id="Layer_2" data-name="Layer 2"><g id="Layer_1-2" data-name="Layer 1"><path class="cls-1" d="M169.69,30.15c-1.17-.59-2.61-.93-3.46-1.82-2.08-2.18-3.8-4.7-5.87-6.89a5.17,5.17,0,0,0-3.2-1.51c-.48,0-1.11,1.61-1.55,2.55-1,2.13-1.9,4.29-2.89,6.43-.38.82-.89,1.59-1.31,2.41-1,1.86-3,3-3.95,1.87a4.6,4.6,0,0,1-.5-4,27,27,0,0,1,3.7-5.8,4.65,4.65,0,0,0-1.23-7.08,5.54,5.54,0,0,1-2-2.29c-1-2.1-3.59-3.3-3.31-6,.07-.71.24-2,.49-2,.82-.1,2.16,0,2.47.48a40.8,40.8,0,0,1,3.27,6.67c.64,1.72,1.34,3.19,3.36,3,.81,0,2.11-.77,2.27-1.42a20.12,20.12,0,0,1,5.73-9.27c.39-.39.52-1,.87-1.43a1.72,1.72,0,0,1,3.1.31c.64,1.19.14,4.6-.75,5.63-1.53,1.75-3,3.54-4.49,5.34-.68.83.16,3.17,1.49,3.87,4.28,2.27,6.13,6.35,8.15,10.32Z"/><path class="cls-1" d="M173.68,19.16a22.61,22.61,0,0,1,0,3c-.08.62-.38,1.59-.78,1.7a2.52,2.52,0,0,1-2.13-.43A45.43,45.43,0,0,1,166.09,18a3.1,3.1,0,0,1,.61-4.38A4.22,4.22,0,0,0,168,12.16c.56-1.52,1.56-2.76,3.1-2a5.13,5.13,0,0,1,2.33,3.18,31.4,31.4,0,0,1,.36,5.84Z"/><path class="cls-1" d="M158.4,36.83c-.5,0-1,0-1.5,0-2.07-.12-3.15-1.72-2.22-3.5a32.35,32.35,0,0,1,2.9-4.6c1.79-2.36,3.78-2.19,5.48.28.71,1,1.44,2,2.22,3,1.13,1.41.76,3.38-.88,3.8-2,.51-4,.78-6,1.15Z"/><path class="cls-1" d="M139.41,18.61c.41-1.94.84-3.77,1.18-5.62s1.29-1.65,2.19-.64a25.35,25.35,0,0,1,3.27,4.38c1.54,2.67,0,7.92-2.69,9.49-1.43.84-2.3-.14-2.62-1.23C140.13,22.92,139.84,20.76,139.41,18.61Z"/><path class="cls-1" d="M153,0a13.5,13.5,0,0,1,3.4,1.54A2.87,2.87,0,0,1,157.22,4a19.25,19.25,0,0,1-2.3,4.66,2.49,2.49,0,0,1-2,.67c-.42-.05-.76-.91-1.09-1.44a6.61,6.61,0,0,1-.25-.79C149.58,2.72,149.58,2.72,153,0Z"/><path class="cls-1" d="M193.09,16.58A24.31,24.31,0,0,1,188,15.27a3,3,0,0,1-.76-2.84c1.61-3.18,3.19-6.48,6.79-8.06,2-.87,2.71-.45,2.89,1.66s.71,4.43.8,6.65c.14,3.19-.38,3.61-3.52,3.62h-1.08Z"/><path class="cls-1" d="M199.52,30.28c0,.78,0,1.57,0,2.35.07,1.34,0,3-1.48,3.11a5.48,5.48,0,0,1-3.91-1.37,33.8,33.8,0,0,1-4.61-6,5,5,0,0,1-.45-3.16c0-.33,1.41-.63,2.19-.67,1.71-.1,3.43-.05,5.15,0,2.48,0,3.06.59,3.1,3C199.54,28.43,199.52,29.36,199.52,30.28Z"/><path class="cls-1" d="M208.65,10.2a29.56,29.56,0,0,1,0-3c0-.5.33-1.23.69-1.35a1.69,1.69,0,0,1,1.47.48c1.65,1.83,3.25,3.69,4.75,5.64a2.18,2.18,0,0,1,.18,1.82c-.91,2.4-3.06,1.53-4.8,1.6a2.1,2.1,0,0,1-2.31-2.23C208.61,12.19,208.65,11.19,208.65,10.2Z"/><path class="cls-1" d="M211.37,33.73c-2.48-2.1-3.06-4.2-2.66-6.54.36-2.09,2.65-2.27,5-1.59,2.67.78,2.87,2.26.94,4.3C213.54,31.08,212.54,32.37,211.37,33.73Z"/><path class="cls-1" d="M204.68,9c0,1.7,0,3.41,0,5.12,0,1.11-.56,1.6-1.66,1.15s-2.14-3.08-1.75-4.32a2.44,2.44,0,0,0,0-1.51,6.14,6.14,0,0,1,1-6.17c.33-.46,1.18-.56,1.79-.83A5.52,5.52,0,0,1,204.66,4c.08,1.64,0,3.27,0,4.91Z"/><path class="cls-1" d="M193.59,22.6c-1.7-.34-3.43-.58-5.09-1.05-.53-.14-1.29-.92-1.23-1.31.08-.57.78-1.49,1.25-1.51,3.07-.11,6.24-1,9.14.68a2.25,2.25,0,0,1,.87,1.81c0,.38-.91.94-1.47,1a24.22,24.22,0,0,1-3.41.05Z"/><path class="cls-1" d="M211.59,18.53c1.5.33,3,.58,4.49,1,.33.1.59.91.6,1.39s-.45,1.17-.62,1.15c-1.89-.21-3.58,1.69-5.68.32-.82-.54-2.13-.57-1.64-1.8.35-.86,1.43-1.43,2.22-2.09C211.08,18.43,211.37,18.52,211.59,18.53Z"/><path class="cls-1" d="M205.53,30.43c0,1.14.06,2.28,0,3.41,0,.41-.48,1.12-.69,1.11a1.82,1.82,0,0,1-1.29-.73c-1.66-2.84-.74-5.94-.75-8.94,0-.23.94-.73,1.07-.63.63.48,1.48,1.07,1.61,1.74a21.74,21.74,0,0,1,.07,4Z"/><path class="cls-1" d="M205.19,20.38l-1.47,1.82c-.37-.56-1-1.13-1-1.68s.64-1.27,1-1.91Z"/><path class="cls-1" d="M12.24,32c.31-2.36.65-4.64.88-6.94.2-2-.85-2.73-2.82-2.81a50.31,50.31,0,0,1-6.91-.83,4,4,0,0,1-3-5.72,3.11,3.11,0,0,1,2.36-1.38c2.38,0,4.75.45,7.13.71.36,0,.72,0,1.07.06,3.6.29,7.23.37,10.78.94A101.89,101.89,0,0,1,33.42,18.7c.7.19,1.16,1.55,1.48,2.45.06.15-1.12,1-1.81,1.1-1.92.38-3.88.6-5.83.83a10.93,10.93,0,0,1-2.14,0c-2.59-.24-5.18-.66-7.78-.71-1.33,0-2.65.58-1.54,2.46a2.83,2.83,0,0,1,.26,1.64c-.26,2.8-.54,5.59-.91,8.36-.06.4-.86,1.1-1,1a3.68,3.68,0,0,1-1.71-1.39A7.46,7.46,0,0,1,12.24,32Z"/><path class="cls-1" d="M15.51,1.29c4.8-.31,8.33,2.38,11.8,5A22.28,22.28,0,0,1,32,11c1.23,1.72.47,2.92-1.65,2.72-2.92-.27-5.79-1-8.71-1.32-2.74-.28-5.54-.06-8.27-.38-3.19-.37-6.36-1-9.51-1.67C2.49,10,2.49,9,3.36,8.25,6.08,6,8.82,3.72,11.75,1.74,12.68,1.12,14.24,1.41,15.51,1.29Z"/><path class="cls-1" d="M24.74,26.09c2.79.34,5.6.63,8.37,1.09.35.06.92,1.35.72,1.65a16,16,0,0,1-3.25,4.1,33.7,33.7,0,0,1-5.92,3.43c-2.51,1.24-4.55-.16-4.66-3a9.12,9.12,0,0,0-.6-2.83,3.16,3.16,0,0,1,3-4.34h2.36Z"/><path class="cls-1" d="M4.73,25.07C6,26,7.6,26.58,8,27.66s-.54,2.44-.88,3.7a6.67,6.67,0,0,1-2.29-.79,7.92,7.92,0,0,1-1.62-2.41,2,2,0,0,1-.18-1.53A7.46,7.46,0,0,1,4.73,25.07Z"/><path class="cls-1" d="M330.44,15.9c2.46,1.75,4.19,3,7.31,2.08,2.13-.65,5,.83,7.45,1.53a1.89,1.89,0,0,1,.62,1.74C345.48,22,344.67,23,344,23a18.89,18.89,0,0,1-5.81-.69c-2.5-.79-4.33.17-4.35,2.78,0,3.56,0,7.12-.05,10.69,0,.62-.61,1.22-.94,1.84-.7-.41-1.64-.67-2-1.28a5.74,5.74,0,0,1-.75-2.77c-.1-2.64-.05-5.27,0-7.91,0-1.66-.74-2.53-2.45-2.53a18.89,18.89,0,0,1-8.91-2.26,3.94,3.94,0,0,0-1.65-.3c-2-.08-2.5-1.22-2.51-3,0-2,1.38-1.48,2.52-1.69,3.09-.56,5.19,1.4,7.61,2.67,2.65,1.39,3.13,1.18,4.68-1.34A14,14,0,0,1,330.44,15.9Z"/><path class="cls-1" d="M314.74,25.79c1.62-2.14,3.81-1.28,5.66-1.21a5.63,5.63,0,0,1,5.73,6c0,1.14,0,2.27,0,3.41-.06,2-1,2.57-2.73,1.62a19.08,19.08,0,0,1-7.88-8C315.22,27.07,315,26.47,314.74,25.79Z"/><path class="cls-1" d="M321,14.88a17.29,17.29,0,0,1-3.94-1.26,2.37,2.37,0,0,1-1-3.14c1.16-3.42,3.64-5.66,6.33-7.75,1.24-1,2-.36,2,1.13,0,1.84,0,3.69,0,5.54a6.31,6.31,0,0,0,.11,1.69c.86,3,.48,3.49-2.75,3.5h-.64Z"/><path class="cls-1" d="M337.69,31.29c.15-1.68-.15-3.26.42-3.68a12.33,12.33,0,0,1,4.65-1.92c.62-.14,2.08.8,2.11,1.32a8.57,8.57,0,0,1-.72,4.16A18.09,18.09,0,0,1,341.24,35c-1.07,1.22-2.16,1.54-2.74-.45C338.14,33.3,337.87,32,337.69,31.29Z"/><path class="cls-1" d="M332.39,8.24a44.1,44.1,0,0,1-1.34,5c-.21.56-1.17.84-1.79,1.25a6.55,6.55,0,0,1-.88-1.67c-.36-1.91-.61-3.85-.88-5.77a1.68,1.68,0,0,1,0-1.05c.62-1,1.35-1.9,2-2.84a31,31,0,0,1,2.53,3.11c.29.46,0,1.25,0,1.89Z"/><path class="cls-1" d="M336.94,6.92c1.74,1.41,3.27,2.49,4.59,3.78a6.24,6.24,0,0,1,1.17,2.46,11.1,11.1,0,0,1,.36,1.91c-.64-.06-1.28-.1-1.92-.19s-1-.24-1.45-.28a4.68,4.68,0,0,1-4.36-6.11C335.48,7.94,336.26,7.56,336.94,6.92Z"/><path class="cls-1" d="M229.24,14.14c1.38-2,.11-5.41,3.19-7,.25-.14.35-.6.45-.94.82-2.85,3.37-3.83,5.71-4.56,2.63-.83,5,.88,7.37,1.95a19.11,19.11,0,0,1,2.76,1.36c1.69,1.16,3.35,2.39,4.93,3.71,1.2,1,2.11,2.37,3.38,3.25,2.33,1.61,2.82,4.11,3.45,6.49.15.55-.71,1.82-1.34,2-1,.31-2.39.8-3.15-.76-1.06-2.18-2.26-4.3-3.33-6.48-2-4.06-5.44-5.88-9.72-6.21-5-.4-5.94,2.66-7.19,6.43-.57,1.7-.57,3.58-1,5.33a1.9,1.9,0,0,1-1.54,1c-1,0-2.49-.14-2.79-.72C229.71,17.61,229.63,16,229.24,14.14Z"/><path class="cls-1" d="M246.88,36.94c-6.38-.12-9.33-3.23-12.12-6.46-.7-.79-.15-1.64,1-1.68,5.92-.21,11.84,0,17.77.07a5.36,5.36,0,0,1,2.67,1.2c1.31.91,1.33,2.16,0,2.92C252.82,34.89,249.5,37.14,246.88,36.94Z"/><path class="cls-1" d="M239.59,16.86a8,8,0,0,1,.27-2.93c.63-1.29.88-3.14,3-3.11,2.39,0,4.91-.34,6.12,2.51a24.18,24.18,0,0,0,1.49,3c.89,1.45,1.4,3.16,0,4.21-1,.76-2.75.74-4.16.72s-2.75-.7-4.1-.64c-2.12.1-2.87-.72-2.59-2.71a7.5,7.5,0,0,0,0-1.06Z"/><path class="cls-1" d="M257.75,26.48c-2.87-.6-5.3,1.64-8.6.35-2.61-1-6-.06-8.93-.32A28.08,28.08,0,0,1,234.16,25c-.53-.17-.84-1-1.26-1.53a9,9,0,0,1,2.29-.45c1.17.07,2.32.58,3.48.58.94,0,1.86-.62,2.82-.72a11.13,11.13,0,0,1,3.1.18c2.12.4,4.21.94,6.33,1.36,1.86.37,3.73.65,5.59,1a11.88,11.88,0,0,1,1.29.38Z"/><path class="cls-1" d="M122.17,17.19c-.22.63-.25,1.21-.56,1.52-3.22,3.21-4.9,7.35-7,11.27-1,1.92-2.87,2-4.13.2q-4-5.66-8.13-11.25c-1-1.35-1.43-2.73-.41-4.17,1.74-2.46,3.46-5,5.43-7.24,2.15-2.47,2.32-2.41,4.72-.27,3,2.7,6,5.47,8.92,8.26A8.44,8.44,0,0,1,122.17,17.19Z"/><path class="cls-1" d="M109.11,36.11c-2-1.24-4.35-2.3-6.14-4-1.54-1.43-2.52-3.5-3.58-5.39a15.33,15.33,0,0,1-1.51-3.87c-.18-.77-.16-2.11.29-2.41.91-.59,1.76-.29,2.51,1A42.7,42.7,0,0,0,105,26.94c1.72,2,3.5,4,5.22,6.08C111.14,34.08,111,34.38,109.11,36.11Z"/><path class="cls-1" d="M117.57,33.78c1.81-4.72,4.09-9.14,8-12.61,1.35,2.33.81,6.17-.87,8.23a27.22,27.22,0,0,0-2.7,4C120.81,35.59,119.31,35.77,117.57,33.78Z"/><path class="cls-1" d="M124.3,12.45C122,13,118.08,10,114.09,4.55c.63-1.29,1.34-1.59,2.5-.4,2.31,2.39,4.71,4.71,7.06,7.07a4.71,4.71,0,0,1,.64.83C124.35,12.15,124.3,12.32,124.3,12.45Z"/><path class="cls-1" d="M99.7,10.73c-.83-2.05.61-5.23,2.77-5.76.37-.09,1.23.27,1.22.4A2.84,2.84,0,0,1,103.21,7C102.13,8.3,100.92,9.47,99.7,10.73Z"/><path class="cls-1" d="M462,13.08c.26,2.44.21,5,.86,7.3.95,3.41,3.31,3.17,5.7,2,1.62-.77,2.48.12,3.48.64a2.13,2.13,0,0,1,.35,2,5.74,5.74,0,0,1-2.81,1.44,53.18,53.18,0,0,1-7.54.83,41.5,41.5,0,0,1-5.64-.59,7,7,0,0,0-1.91-.16c-3,.55-5.65-.65-8.23-1.91-.27-.13-.3-1.59-.07-1.7a6.92,6.92,0,0,1,3.17-1,75,75,0,0,1,7.76.78,2.74,2.74,0,0,0,3.12-3.68,38,38,0,0,1-1.73-14.33c0-.56.76-1.09,1.17-1.63.57.45,1.54.82,1.64,1.36.56,2.81.9,5.66,1.31,8.5Z"/><path class="cls-1" d="M455.31,14.39c0,4.1-.62,4.7-5.09,5.13-.91.08-1.81.18-2.71.19-2.69.06-3.61-1-3.78-3.59-.33-5.2,2-9.09,5.83-12.29,1.93-1.6,4.43-.66,4.82,2C454.82,8.71,455,11.65,455.31,14.39Z"/><path class="cls-1" d="M470,30.73c-3.56,5.8-9.87,6.68-15.14,3.87A50.49,50.49,0,0,1,450,32.2c-.64-.43-.71-1.68-1-2.56a7.25,7.25,0,0,1,2.37-.81c5.45.2,10.89.5,16.32.86A7.79,7.79,0,0,1,470,30.73Z"/><path class="cls-1" d="M469.06,18.87c-1.85.56-2.41-1.11-2.72-2.33a41.47,41.47,0,0,1-1-7c-.05-.66.58-1.37.9-2.06a9.37,9.37,0,0,1,2.06,1.23A13.64,13.64,0,0,1,472,14.9C472.85,17.75,472.29,18.89,469.06,18.87Z"/><path class="cls-1" d="M48,19c1.11-2.61,2.15-5.43,3.5-8.08.73-1.44,2.32-1.3,3.39.06,3.53,4.48,7.22,8.86,10.53,13.5a100.87,100.87,0,0,1,6.29,10.55,2.78,2.78,0,0,1-.35,2.63c-.61.56-1.86.54-2.84.56-.67,0-1.33-.5-2-.52C59.63,37.57,55,34,51.89,28.19c-.9-1.71-1.8-3.43-2.58-5.2C48.81,21.86,48.52,20.63,48,19Z"/><path class="cls-1" d="M83.25,23.57a11.29,11.29,0,0,1-.07,3.19c-.27.87-1,2-1.77,2.2a3.31,3.31,0,0,1-2.62-1.2c-2.47-3.05-4.78-6.22-7.09-9.4-1.8-2.49-3.48-5.07-5.28-7.57C65.31,9.26,64,7.88,62.94,6.3a9.56,9.56,0,0,1-1.41-3.47C61.25,1.2,62.44.4,63.88.59c3.29.43,6.53,1.18,9.24,3.24A25.52,25.52,0,0,1,81.74,15c1,2.69,1.34,5.66,2,8.51Z"/><path class="cls-1" d="M79.09,33.17c-.47.51-1,1.49-1.74,1.76-.57.21-1.56-.38-2.22-.83-3.23-2.19-4.37-5.81-6.3-8.93-2.23-3.62-5.08-6.87-7.55-10.35a85.36,85.36,0,0,1-4.64-7.23c-.36-.64,0-1.68,0-2.53.74.26,1.73.32,2.17.83C60.48,7.86,62,10,63.55,12c.61.78,1.4,1.43,2,2.22,1.92,2.58,3.74,5.23,5.69,7.78,1,1.35,2.35,2.47,3.39,3.82,1.44,1.89,2.76,3.88,4.09,5.85A5.69,5.69,0,0,1,79.09,33.17Z"/><path class="cls-1" d="M414.44,27.42c-1.93,0-3.87,0-5.8,0-2.41-.05-3.17-1.45-2.42-3.67,1.71-5.06,3.19-10.2,4.89-15.26.24-.74,1.14-1.27,1.73-1.89A17.07,17.07,0,0,1,414,8.27c1.59,2.84,3.09,5.74,4.73,8.56,1.33,2.3,2.88,4.46,4.19,6.78s.28,3.76-2.24,3.81C418.59,27.46,416.52,27.42,414.44,27.42Z"/><path class="cls-1" d="M416.39,36.87c-3.73.18-6.85-1.43-9.85-3.32-1.19-.76-2.31-2.18-1.22-3.34.82-.88,2.61-.91,4-1.2a6.14,6.14,0,0,1,2.05,0c1.36.17,2.71.48,4.07.62.95.1,1.93-.07,2.88,0a73.52,73.52,0,0,1,7.73,1c1.39.29.81,1.34.15,2.11C423.62,35.78,420.2,36.78,416.39,36.87Z"/><path class="cls-1" d="M429.69,21.8l-.8,2.88a12.19,12.19,0,0,1-2.74-1.61,19,19,0,0,1-2.8-3.67c-2.28-3.85-4.47-7.75-6.66-11.66A3.55,3.55,0,0,1,416.24,6a7.08,7.08,0,0,1,.64-1.86,7.29,7.29,0,0,1,1.67.67c2.55,1.9,5.1,3.81,7.56,5.81a7.06,7.06,0,0,1,2.57,5.77A31.15,31.15,0,0,0,429.69,21.8Z"/><path class="cls-1" d="M408.86,4.71a8.23,8.23,0,0,1-.13,1.39c-2,5.7-4,11.41-6.07,17.08a2.06,2.06,0,0,1-1.62.51c-.8-1-1.84-2.09-2-3.26-.77-5.85,1.46-10.7,5.6-14.78a12.62,12.62,0,0,1,1.13-1.27c.64-.47,1.41-1.15,2.07-1.1C408.31,3.32,408.68,4.44,408.86,4.71Z"/><path class="cls-1" d="M367.12,35.1c-2.59-1.33-4.91-2.42-5.29-5.4a1.58,1.58,0,0,0-.6-.85c-2.36-2-2.41-4.8-2.68-7.45a25.13,25.13,0,0,1,0-7.45c.75-3.72.35-7.91,3.75-10.79,1.74-1.48,3.69-1.07,5.47-.65,1.61.38,1.39,2.08,1.38,3.44,0,3.63.55,7.36-.13,10.86-1,5.08-.44,10.14-.79,15.19A11.89,11.89,0,0,1,367.12,35.1Z"/><path class="cls-1" d="M377.33,30.6c.33-4.24.39-8.52,1.13-12.69.3-1.69-.08-3.17,0-4.73a16,16,0,0,1,.92-4.25c.07-.24,1.46-.41,1.85-.11a13.92,13.92,0,0,1,5.2,9.73c.21,1.65.65,3.28.83,4.94.44,4.2-1.77,7.63-3.67,11a4.67,4.67,0,0,1-3.81,2c-1.65-.29-2.67-2-2.35-4a12.29,12.29,0,0,0,0-1.92Z"/><path class="cls-1" d="M375.22,18c0,2.07.09,4.14,0,6.2-.22,3.78-.54,7.57-.9,11.34a1.82,1.82,0,0,1-.89,1.19c-.18.1-.92-.36-1.06-.7a9.53,9.53,0,0,1-.89-3.19c-.11-4.06-.16-8.12,0-12.18q.23-6.75.91-13.47c.08-.8,1.17-1.5,1.79-2.25.35.72,1,1.44,1,2.17C375.27,10.7,375.22,14.33,375.22,18Z"/><path class="cls-1" d="M301.22,25.18c.35,3.58-1.38,6.57-2.92,9.55a4.6,4.6,0,0,1-2.55,1.76,50.71,50.71,0,0,1-5.33,1.2,24.86,24.86,0,0,1-3.49.64,14,14,0,0,1-2.16-.51c-5.69-.69-8.5-4.6-10.6-9.32a24.58,24.58,0,0,1-1.81-11.34c.13-2.87-.38-5.77,1.52-8.39,2.24-3.08,4.59-6,8.69-6.36a10.34,10.34,0,0,1,4.28.89,35.74,35.74,0,0,1,5,2.49,12.87,12.87,0,0,1,2.19,2c.77.75,1.52,1.52,2.25,2.3a5.39,5.39,0,0,1,1.3,1.6c1.18,3.27,2.32,6.56,3.31,9.89A16.42,16.42,0,0,1,301.22,25.18Zm-1.76-.38a44.42,44.42,0,0,0-1.78-5.17A24.05,24.05,0,0,0,291.24,12a13.68,13.68,0,0,0-11-3.45c-2.88.32-6.24,3.46-6.66,6.28-.76,5.13,1,9.38,4.6,13A14.43,14.43,0,0,0,281.28,30a15.13,15.13,0,0,0,3.17,1.31c.67.19,1.48-.09,2.13.13,3.2,1.09,5.79.15,8.12-2.08.65-.62,1.57-1,2.2-1.59C297.84,26.85,298.64,25.78,299.46,24.8Z"/><path class="cls-1" d="M283.58,11.67c2.31-.29,4.17.83,5.87,2.52a22.23,22.23,0,0,1,5.24,6.87c1.34,3.16-1,7.31-4.4,7.17a24.28,24.28,0,0,1-7.08-1.06c-2.42-.86-3.9-3.07-4.78-5.46a13.41,13.41,0,0,1-.85-4.28C277.47,13,278.88,11.67,283.58,11.67Z"/></g></g></svg>